<svg width="132" height="24" viewBox="0 0 132 24" fill="none" xmlns="http://www.w3.org/2000/svg">
<path d="M0.6 18.5345H2.1V5.06453H0.6V0.114527H12.78C16.12 0.114527 18.77 1.03453 20.73 2.87453C22.71 4.69453 23.7 7.66453 23.7 11.7845C23.7 15.9045 22.71 18.8845 20.73 20.7245C18.77 22.5445 16.12 23.4545 12.78 23.4545H0.6V18.5345ZM12.24 18.5345C12.92 18.5345 13.43 18.3545 13.77 17.9945C14.11 17.6345 14.28 17.0745 14.28 16.3145V7.25453C14.28 5.77453 13.6 5.03453 12.24 5.03453H10.5V18.5345H12.24ZM37.4613 6.35453C37.8613 6.35453 38.2413 6.39453 38.6013 6.47453C38.9613 6.55453 39.2613 6.65453 39.5013 6.77453V12.5045C38.6813 12.1645 37.8013 11.9945 36.8613 11.9945C35.6013 11.9945 34.6313 12.3245 33.9513 12.9845C33.2713 13.6445 32.9313 14.6245 32.9313 15.9245V18.5345H35.6313V23.4545H24.7113V18.5345H26.0313V11.6945H24.7113V6.77453H32.9313V8.96453C33.4913 8.12453 34.1313 7.48453 34.8513 7.04453C35.5713 6.58453 36.4413 6.35453 37.4613 6.35453ZM38.4363 23.4545V18.5345H43.1163V23.4545H38.4363ZM54.0705 23.8745C51.2105 23.8745 48.9805 23.1345 47.3805 21.6545C45.7805 20.1545 44.9805 17.9745 44.9805 15.1145C44.9805 12.2545 45.7805 10.0845 47.3805 8.60453C48.9805 7.10453 51.2005 6.35453 54.0405 6.35453C55.4205 6.35453 56.7405 6.54453 58.0005 6.92453C59.2605 7.30453 60.2405 7.73453 60.9405 8.21453V14.1545H55.7805V13.6145C55.7805 12.9545 55.6405 12.4745 55.3605 12.1745C55.0805 11.8545 54.6405 11.6945 54.0405 11.6945C52.8805 11.6945 52.3005 12.3345 52.3005 13.6145V16.1945C52.3005 17.7545 53.1905 18.5345 54.9705 18.5345C56.6305 18.5345 58.5605 18.3545 60.7605 17.9945V22.7045C60.0805 23.0045 59.1205 23.2745 57.8805 23.5145C56.6605 23.7545 55.3905 23.8745 54.0705 23.8745ZM81.8663 18.5345V23.4545H72.3863V18.5345H73.6463V13.6145C73.6463 12.9545 73.5063 12.4745 73.2263 12.1745C72.9463 11.8545 72.5263 11.6945 71.9663 11.6945C70.7663 11.6945 70.1663 12.3345 70.1663 13.6145V18.5345H71.4263V23.4545H61.9463V18.5345H63.2663V5.03453H61.9463V0.114527H70.1663V9.11453C70.9063 8.19453 71.7063 7.50453 72.5663 7.04453C73.4263 6.58453 74.4263 6.35453 75.5663 6.35453C77.2263 6.35453 78.4663 6.87453 79.2863 7.91453C80.1263 8.95453 80.5463 10.3845 80.5463 12.2045V18.5345H81.8663ZM100.325 18.5345V23.4545H92.4049V21.4145C91.9649 22.0545 91.3449 22.6245 90.5449 23.1245C89.7649 23.6245 88.8049 23.8745 87.6649 23.8745C86.1649 23.8745 84.9849 23.4745 84.1249 22.6745C83.2649 21.8745 82.8349 20.7445 82.8349 19.2845C82.8349 15.5045 86.0449 13.5645 92.4649 13.4645C92.4049 12.7845 92.1449 12.3245 91.6849 12.0845C91.2249 11.8245 90.4449 11.6945 89.3449 11.6945C88.4449 11.6945 87.4749 11.7945 86.4349 11.9945C85.4149 12.1745 84.4749 12.4245 83.6149 12.7445V7.22453C84.6749 6.96453 85.8249 6.75453 87.0649 6.59453C88.3049 6.43453 89.5149 6.35453 90.6949 6.35453C93.6749 6.35453 95.8049 6.89453 97.0849 7.97453C98.3649 9.05453 99.0049 10.7245 99.0049 12.9845V18.5345H100.325ZM92.4049 16.4345C91.5049 16.4345 90.8049 16.5545 90.3049 16.7945C89.8249 17.0345 89.5849 17.4345 89.5849 17.9945C89.5849 18.3345 89.6849 18.6145 89.8849 18.8345C90.1049 19.0345 90.4049 19.1345 90.7849 19.1345C91.3049 19.1345 91.7049 18.9145 91.9849 18.4745C92.2649 18.0345 92.4049 17.4145 92.4049 16.6145V16.4345ZM102.732 5.12453V0.114527H108.852V5.12453H102.732ZM101.292 23.4545V18.5345H102.612V11.6945H101.292V6.77453H109.512V18.5345H110.832V23.4545H101.292ZM131.583 18.5345V23.4545H122.103V18.5345H123.363V13.6145C123.363 12.9545 123.223 12.4745 122.943 12.1745C122.663 11.8545 122.243 11.6945 121.683 11.6945C120.483 11.6945 119.883 12.3345 119.883 13.6145V18.5345H121.143V23.4545H111.663V18.5345H112.983V11.6945H111.663V6.77453H119.883V9.11453C121.323 7.27453 123.123 6.35453 125.283 6.35453C126.943 6.35453 128.183 6.87453 129.003 7.91453C129.843 8.95453 130.263 10.3845 130.263 12.2045V18.5345H131.583Z" fill="#5789DB"/>
</svg>
