<?xml version="1.0" standalone="no"?><!DOCTYPE svg PUBLIC "-//W3C//DTD SVG 1.1//EN" "http://www.w3.org/Graphics/SVG/1.1/DTD/svg11.dtd"><svg t="1590475292437" class="icon" viewBox="0 0 1024 1024" version="1.1" xmlns="http://www.w3.org/2000/svg" p-id="15801" xmlns:xlink="http://www.w3.org/1999/xlink" width="200" height="200"><defs><style type="text/css"></style></defs><path d="M475.665 328.671h-3.304c-1.651 0-3.303 0-4.955 1.652-4.954 23.122-1.651 47.896 8.259 69.367 6.606-23.122 8.258-47.896 0-71.019z m9.91 196.542l-1.652 3.303-1.652-1.651c-11.561 31.38-26.426 62.76-41.29 92.49l3.303-1.652v3.303c29.729-11.56 61.11-19.819 92.49-26.425l-1.651-1.652h3.303c-18.168-21.47-36.336-44.594-52.852-67.716zM295.638 734.968l3.303-1.652c18.168-6.606 34.684-19.82 44.593-37.987-19.819 8.258-34.683 21.471-47.896 39.639z m374.916-138.736c-11.561 0-23.123 0-34.684 3.303 13.213 6.607 26.426 9.91 41.29 11.562 9.91 1.651 19.82 0 26.426-3.303-1.652-4.955-6.606-11.562-33.032-11.562z m62.761-579.716H188.284c-46.245 0-82.58 36.336-82.58 82.58v825.807c0 46.245 36.335 82.58 82.58 82.58h644.129c46.245 0 82.58-36.335 82.58-82.58v-726.71L733.317 16.517z m9.91 587.974c0 46.245-44.594 46.245-67.716 46.245-36.336-1.651-72.671-16.516-100.749-41.29-56.155 11.561-109.006 29.73-161.858 51.2-41.29 74.323-80.929 112.31-115.613 112.31-6.606 0-14.864-1.652-19.819-4.955-14.865-6.606-23.123-21.471-23.123-36.335 0-11.562 3.304-46.246 132.13-102.4 29.728-52.852 52.851-110.659 71.019-168.465-16.516-33.032-51.2-112.31-26.426-153.6 8.258-14.865 24.774-23.123 41.29-21.471 13.213 0 26.426 6.606 34.684 18.168 18.168 24.774 16.516 75.974-6.606 151.948 21.47 41.29 49.548 77.626 84.232 109.007 28.077-4.955 56.155-9.91 85.884-9.91 64.413 3.303 74.322 33.032 72.67 49.548z" p-id="15802"></path><path d="M736.62 14.865h-3.304v132.129c0 16.516 8.258 52.851 57.807 52.851h127.174L736.619 14.865z" p-id="15803"></path></svg>