<?xml version="1.0" standalone="no"?><!DOCTYPE svg PUBLIC "-//W3C//DTD SVG 1.1//EN" "http://www.w3.org/Graphics/SVG/1.1/DTD/svg11.dtd"><svg t="1590445647839" class="icon" viewBox="0 0 1024 1024" version="1.1" xmlns="http://www.w3.org/2000/svg" p-id="15016" xmlns:xlink="http://www.w3.org/1999/xlink" width="200" height="200"><defs><style type="text/css"></style></defs><path d="M799.305 861.623c0 34.377-28.014 62.39-62.39 62.39h-449.61a62.464 62.464 0 0 1-62.464-62.39V199.168h574.464v662.455zM349.696 87.186c0-7.168 5.559-12.8 12.8-12.8h299.959c7.241 0 12.8 5.632 12.8 12.8v37.596H349.696V87.186z m636.782 37.596H749.64V87.186C749.641 39.205 710.51 0 662.455 0H362.496a87.406 87.406 0 0 0-87.186 87.186v37.596H37.669a37.522 37.522 0 1 0 0 75.19H149.65v661.65c0 75.996 61.66 137.583 137.655 137.583h449.536a137.582 137.582 0 0 0 137.655-137.582V199.168h111.982c20.772 0 37.595-16.823 37.595-37.595a36.864 36.864 0 0 0-37.595-36.791zM512.073 811.227c20.773 0 37.596-16.822 37.596-37.595V373.541a37.522 37.522 0 1 0-75.191 0v400.091c0 20.773 16.823 37.595 37.595 37.595z m-175.177 0c20.773 0 37.595-16.822 37.595-37.595V373.541a37.522 37.522 0 1 0-75.19 0v400.091c0.731 20.773 17.554 37.595 37.595 37.595z m350.354 0c20.846 0 37.669-16.822 37.669-37.595V373.541a37.595 37.595 0 1 0-75.264 0v400.091c0 20.773 16.823 37.595 37.595 37.595z" p-id="15017"></path></svg>