<?xml version="1.0" standalone="no"?><!DOCTYPE svg PUBLIC "-//W3C//DTD SVG 1.1//EN" "http://www.w3.org/Graphics/SVG/1.1/DTD/svg11.dtd"><svg t="1590352891323" class="icon" viewBox="0 0 1024 1024" version="1.1" xmlns="http://www.w3.org/2000/svg" p-id="17288" xmlns:xlink="http://www.w3.org/1999/xlink" width="200" height="200"><defs><style type="text/css"></style></defs><path d="M631.214884 1023.999a39.525961 39.525961 0 0 1-39.729962-39.389962V393.899615c0-9.76199 3.685996-19.182981 10.23999-26.419974L860.794659 78.847923H162.428341l259.549747 288.835718a39.252962 39.252962 0 0 1 10.10399 26.214974v355.463653l63.077938 50.653951c17.066983 13.652987 19.659981 38.433962 5.869995 55.295946a39.935961 39.935961 0 0 1-55.840946 5.870994l-77.823924-62.463939a39.184962 39.184962 0 0 1-14.745985-30.58297V408.848601L44.190457 65.535936a39.184962 39.184962 0 0 1-6.552994-42.324959A39.799961 39.799961 0 0 1 73.750428 0h876.543144c15.700985 0 29.899971 9.147991 36.249965 23.414977a39.184962 39.184962 0 0 1-6.826994 42.325959L670.877845 408.916601V984.609038c0 21.844979-17.748983 39.389962-39.662961 39.389962z" p-id="17289"></path></svg>