<?xml version="1.0" standalone="no"?><!DOCTYPE svg PUBLIC "-//W3C//DTD SVG 1.1//EN" "http://www.w3.org/Graphics/SVG/1.1/DTD/svg11.dtd"><svg t="1590295334695" class="icon" viewBox="0 0 1024 1024" version="1.1" xmlns="http://www.w3.org/2000/svg" p-id="7727" xmlns:xlink="http://www.w3.org/1999/xlink" width="200" height="200"><defs><style type="text/css"></style></defs><path d="M949.571805 676.601777C936.075759 656.907547 917.181295 641.91194 894.887826 633.214488l-11.096749-4.398711V435.372449c0-90.773406-33.890071-178.047838-95.47203-245.628038C727.136972 122.464122 643.761398 79.976569 553.587816 70.079469l-11.096749-1.199649V30.391096c0-15.895343-12.196427-28.891536-27.591916-30.291125-0.899736-0.099971-1.799473-0.099971-2.69921-0.099971h-0.199941c-16.79508 0-30.391096 13.695988-30.391096 30.391096v38.588695L470.712096 70.079469c-90.373523 9.997071-173.749097 52.484624-234.931172 119.564971C174.098994 257.224641 140.108952 344.499073 140.108952 435.372449v193.343357l-11.196719 4.398711c-22.293469 8.597481-41.187933 23.593088-54.68398 43.387289-13.396075 19.794201-20.493996 42.887435-20.493995 66.780436v4.598652c0 65.680758 54.184126 119.165088 120.664649 119.165089h675.302157c32.390511 0 62.781607-12.59631 85.6749-35.489603 22.393439-22.393439 34.689837-52.084741 34.689837-83.675486v-4.598652c0.199941-23.893-6.99795-46.986235-20.493996-66.680465z m-44.786879 71.479059c0.099971 15.095577-6.098213 29.891243-16.995021 40.588109-10.296983 9.997071-23.893 15.595431-38.388753 15.695401H174.198965c-30.790979-0.399883-55.683686-25.692473-55.383774-56.483452v-4.29874c-0.399883-22.793322 13.596017-43.787172 34.889778-52.384653l51.584887-20.294055V435.372449c0-168.050766 137.559699-304.8107 306.710144-304.8107 169.150444 0 306.710144 136.759934 306.710144 304.8107V670.903446l51.584887 20.394025c21.193791 8.39754 35.08972 29.49136 34.789807 52.384653l-0.299912 4.398712zM713.241043 949.921703c-4.798594-12.69628-17.194962-21.193791-30.79098-21.193791-3.998828 0-7.897686 0.699795-11.396661 1.999414l-0.999707 0.399883c-51.584887 18.694523-105.669042 28.191741-160.752904 28.191741-53.484331 0-106.168896-8.997364-156.654105-26.69218-3.498975-1.299619-7.297862-1.899444-11.096749-1.899444-13.695988 0-26.192326 8.697452-30.89095 21.493703-2.899151 8.097628-2.499268 16.79508 1.199648 24.592795 3.598946 7.697745 10.097042 13.596017 18.29464 16.495168l0.499854 0.199941c57.58313 20.294054 117.765498 30.491067 178.747632 30.491067 63.081519 0 125.263302-10.996778 184.745876-32.590452 8.097628-3.099092 14.595724-8.997364 18.194669-16.79508 3.598946-7.797716 3.998828-16.495167 1.199649-24.292883l-0.299912-0.399882z" p-id="7728"></path></svg>