<?xml version="1.0" standalone="no"?><!DOCTYPE svg PUBLIC "-//W3C//DTD SVG 1.1//EN" "http://www.w3.org/Graphics/SVG/1.1/DTD/svg11.dtd"><svg t="1590297324458" class="icon" viewBox="0 0 1024 1024" version="1.1" xmlns="http://www.w3.org/2000/svg" p-id="11258" xmlns:xlink="http://www.w3.org/1999/xlink" width="200" height="200"><defs><style type="text/css"></style></defs><path d="M986.624 548.522667H37.376a36.522667 36.522667 0 0 1 0-73.045334h949.248a36.522667 36.522667 0 1 1 0 73.045334z m-109.568 438.101333H658.005333a36.437333 36.437333 0 1 1 0-73.045333h219.050667a36.522667 36.522667 0 0 0 36.522667-36.522667V694.613333a36.437333 36.437333 0 1 1 73.045333 0v182.613334c0 60.330667-49.152 109.482667-109.568 109.482666z m-547.584 0H146.773333a109.653333 109.653333 0 0 1-109.482666-109.568V694.613333a36.522667 36.522667 0 1 1 73.045333 0v182.613334c0 20.053333 16.384 36.437333 36.522667 36.437333H329.386667a36.522667 36.522667 0 1 1 0 73.045333zM73.898667 365.994667a36.522667 36.522667 0 0 1-36.522667-36.522667V146.773333c0-60.330667 49.152-109.482667 109.568-109.482666H329.386667a36.522667 36.522667 0 0 1 0 73.045333H146.773333a36.608 36.608 0 0 0-36.437333 36.522667V329.386667a36.522667 36.522667 0 0 1-36.522667 36.522666z m876.202666 0a36.522667 36.522667 0 0 1-36.522666-36.522667V146.773333a36.522667 36.522667 0 0 0-36.522667-36.437333H658.005333a36.522667 36.522667 0 1 1 0-73.045333h219.050667c60.416 0 109.568 49.152 109.568 109.568V329.386667a36.522667 36.522667 0 0 1-36.522667 36.522666z" p-id="11259"></path></svg>