<?xml version="1.0" standalone="no"?><!DOCTYPE svg PUBLIC "-//W3C//DTD SVG 1.1//EN" "http://www.w3.org/Graphics/SVG/1.1/DTD/svg11.dtd"><svg t="1590297054089" class="icon" viewBox="0 0 1024 1024" version="1.1" xmlns="http://www.w3.org/2000/svg" p-id="9979" xmlns:xlink="http://www.w3.org/1999/xlink" width="200" height="200"><defs><style type="text/css"></style></defs><path d="M774.827 77.559a508.018 508.018 0 0 0-693.855 173.89 507.26 507.26 0 0 0 173.89 693.665 388.93 388.93 0 0 0 48.545 24.273 34.892 34.892 0 0 0 14.981 3.792 34.323 34.323 0 0 0 31.668-20.67 31.479 31.479 0 0 0 0-26.168 33.754 33.754 0 0 0-18.963-20.48c-14.98-7.585-28.065-14.981-41.15-22.377A435.01 435.01 0 0 1 92.35 615.917a426.477 426.477 0 0 1 48.545-327.111v-1.896A438.044 438.044 0 0 1 512.948 78.317a425.15 425.15 0 0 1 222.625 60.871 440.51 440.51 0 0 1 179.39 536.652 606.815 606.815 0 0 1-29.772 59.923 431.407 431.407 0 0 1-192.664 171.994 35.271 35.271 0 0 0-16.877 46.649 34.892 34.892 0 0 0 31.858 20.67 44.753 44.753 0 0 0 14.98-3.793 502.14 502.14 0 0 0 222.436-200.06A502.14 502.14 0 0 0 774.827 77.56z" p-id="9980"></path><path d="M514.844 935.822a39.064 39.064 0 0 0-33.564 20.48 36.788 36.788 0 0 0 0 39.254 41.719 41.719 0 0 0 33.564 18.963 39.822 39.822 0 0 0 33.755-20.67 37.926 37.926 0 0 0 0-39.253 42.098 42.098 0 0 0-33.755-18.774z m153.41-516.172L546.703 275.721a29.582 29.582 0 0 0-14.98-14.98 31.479 31.479 0 0 0-18.963-5.69 35.271 35.271 0 0 0-18.963 5.69c-5.69 3.792-11.378 7.395-13.085 13.084L357.262 421.547a35.081 35.081 0 0 0-5.689 35.46 35.46 35.46 0 0 0 28.066 22.566h7.585a40.391 40.391 0 0 0 28.065-13.084l61.63-75.852V731.97a37.926 37.926 0 0 0 18.962 31.669 30.91 30.91 0 0 0 18.963 5.688 38.874 38.874 0 0 0 37.926-37.926V390.068l61.82 73.008a39.633 39.633 0 0 0 28.065 13.084h5.5a36.599 36.599 0 0 0 28.064-24.273 32.616 32.616 0 0 0-7.964-32.237z" p-id="9981"></path></svg>