<?xml version="1.0" standalone="no"?><!DOCTYPE svg PUBLIC "-//W3C//DTD SVG 1.1//EN" "http://www.w3.org/Graphics/SVG/1.1/DTD/svg11.dtd"><svg t="1590353716999" class="icon" viewBox="0 0 1024 1024" version="1.1" xmlns="http://www.w3.org/2000/svg" p-id="14137" xmlns:xlink="http://www.w3.org/1999/xlink" width="200" height="200"><defs><style type="text/css"></style></defs><path d="M231.131429 615.497143l10.093714 32.036571-13.385143-13.385143 3.218286-18.651428z m724.626285-147.968L789.065143 634.148571l40.155428 234.642286c6.948571 27.794286-3.803429 54.564571-24.283428 74.971429l-9.508572 6.875428a100.498286 100.498286 0 0 1-41.910857 11.190857 69.046857 69.046857 0 0 1-35.474285-7.972571l-209.554286-111.542857-210.358857 111.908571c-28.525714 14.336-63.414857 12.288-80.530286-5.851428-24.283429-16.164571-37.156571-50.468571-30.427429-76.8l40.667429-237.421715L58.368 464.676571A69.778286 69.778286 0 0 1 42.130286 386.925714c8.265143-32.621714 32.914286-54.052571 62.464-53.686857l233.033143-33.792 105.252571-220.672C456.265143 52.004571 483.181714 36.571429 512.146286 36.571429c26.843429 0 52.516571 16.457143 69.558857 42.788571l104.96 220.086857 236.617143 34.377143c26.624 6.729143 50.102857 25.819429 58.368 51.931429 13.385143 30.500571 3.145143 62.171429-25.892572 81.773714z m-41.106285-52.589714l-0.219429-0.512c0 0.219429 0.073143 0.365714 0.219429 0.512z m-5.485715-9.362286l-271.652571-39.424-8.411429-17.554286-110.811428-233.252571C516.315429 112.420571 512 109.714286 512.146286 109.714286c-2.194286 0-3.364571 0.731429-3.584 1.097143L386.779429 366.153143l-19.309715 2.852571-254.610285 36.498286-2.56 7.68 196.022857 196.022857-3.145143 18.651429-44.470857 258.706285c0.146286-0.585143 1.170286 2.048 5.046857 5.485715-1.974857-1.901714-1.024-1.901714 0.804571-2.779429l243.931429-129.828571 17.188571 9.142857 225.499429 120.100571a15.36 15.36 0 0 0 5.705143-1.097143 5.193143 5.193143 0 0 0 0.804571-3.657142l-47.104-274.724572 196.242286-196.242286 5.485714-4.242285c-0.292571-0.585143-3.145143-2.925714-3.145143-3.145143z" p-id="14138"></path></svg>