<?xml version="1.0" standalone="no"?><!DOCTYPE svg PUBLIC "-//W3C//DTD SVG 1.1//EN" "http://www.w3.org/Graphics/SVG/1.1/DTD/svg11.dtd"><svg t="1590354337858" class="icon" viewBox="0 0 1024 1024" version="1.1" xmlns="http://www.w3.org/2000/svg" p-id="16443" xmlns:xlink="http://www.w3.org/1999/xlink" width="200" height="200"><defs><style type="text/css"></style></defs><path d="M534.454075 248.678614l181.434735 127.087018a36.940695 36.940695 0 0 1 9.057953 51.394037L371.410923 932.160234a36.901312 36.901312 0 0 1-16.816287 13.232488l-186.042476 72.542388A36.901312 36.901312 0 0 1 118.182066 982.687858l4.568358-199.590023a36.940695 36.940695 0 0 1 6.695009-20.360703L482.981273 257.736567a36.901312 36.901312 0 0 1 51.433419-9.057953zM703.877176 6.752507l181.434735 127.047635a36.940695 36.940695 0 0 1 9.057953 51.43342l-84.672168 120.943362a36.901312 36.901312 0 0 1-51.43342 9.057953l-181.474117-127.047635a36.940695 36.940695 0 0 1-9.057953-51.394037L652.404375 15.81046a36.940695 36.940695 0 0 1 51.472801-9.057953z" p-id="16444"></path></svg>