<?xml version="1.0" standalone="no"?><!DOCTYPE svg PUBLIC "-//W3C//DTD SVG 1.1//EN" "http://www.w3.org/Graphics/SVG/1.1/DTD/svg11.dtd"><svg t="1591762483702" class="icon" viewBox="0 0 1024 1024" version="1.1" xmlns="http://www.w3.org/2000/svg" p-id="5024" xmlns:xlink="http://www.w3.org/1999/xlink" width="200" height="200"><defs><style type="text/css"></style></defs><path d="M956.165 572.94c-27.765 0-50.217 22.501-50.217 50.21v257.033c0 22.205-18.026 40.232-40.176 40.232h-723.2c-22.156 0-40.14-18.027-40.14-40.232V157.036c0-22.154 17.984-40.187 40.14-40.187H368.55c27.756 0 50.208-22.495 50.208-50.198 0-27.715-22.452-50.217-50.208-50.217H142.57C65.05 16.434 1.969 79.52 1.969 157.037V880.19c0 77.563 63.082 140.647 140.604 140.647h723.194c77.512 0 140.651-63.083 140.651-140.647V623.152c0.001-27.71-22.5-50.211-50.252-50.211z m0 0" fill="" p-id="5025"></path><path d="M447.598 734.23c1.518 0.143 3.043 0.197 4.567 0.197 25.696 0 47.606-19.6 49.968-45.736 2.793-31.099 16.405-123.706 45.24-177.744 39.6-73.987 113.243-211.74 310.383-237.683 3.388-0.488 6.245-2.155 9.386-3.241l-84.4 176.663c-11.99 25.006-1.375 55.019 23.68 66.915a49.706 49.706 0 0 0 21.563 4.906c18.774 0 36.752-10.51 45.347-28.543l129.885-271.868c5.757-12.028 6.49-25.834 2.018-38.367-4.414-12.577-13.702-22.834-25.693-28.592L707.674 21.347c-24.958-11.891-54.975-1.278-66.96 23.68-11.985 25.002-1.376 55.019 23.68 66.91L807.3 180.224c-220.573 44.903-309.492 210.408-348.45 283.359-44.36 82.92-56.25 210.76-56.746 216.111-2.5 27.654 17.883 52.025 45.494 54.536z m0 0" fill="" p-id="5026"></path></svg>