<svg width="21" height="21" viewBox="0 0 21 21" fill="none" xmlns="http://www.w3.org/2000/svg">
<path d="M1 20L0.25 20C0.25 20.4142 0.585786 20.75 1 20.75L1 20ZM0.999999 3.20003L0.999999 2.45003C0.585786 2.45003 0.249999 2.78582 0.249999 3.20003L0.999999 3.20003ZM17.8 20L17.8 20.75C18.2142 20.75 18.55 20.4142 18.55 20L17.8 20ZM10.6 3.95003C11.0142 3.95003 11.35 3.61425 11.35 3.20003C11.35 2.78582 11.0142 2.45003 10.6 2.45003L10.6 3.95003ZM18.55 11.6C18.55 11.1858 18.2142 10.85 17.8 10.85C17.3858 10.85 17.05 11.1858 17.05 11.6L18.55 11.6ZM1.75 20L1.75 3.20003L0.249999 3.20003L0.25 20L1.75 20ZM17.8 19.25L1 19.25L1 20.75L17.8 20.75L17.8 19.25ZM0.999999 3.95003L10.6 3.95003L10.6 2.45003L0.999999 2.45003L0.999999 3.95003ZM17.05 11.6L17.05 20L18.55 20L18.55 11.6L17.05 11.6Z" fill="#5789DB"/>
<path d="M6.36616 12.3505L15.4674 3.29041C16.1708 2.59018 17.3083 2.59147 18.0101 3.29329V3.29329C18.7141 3.99735 18.7129 5.13927 18.0072 5.84174L8.91174 14.8961L5.87339 15.3889L6.36616 12.3505Z" stroke="#5789DB" stroke-width="1.5" stroke-linejoin="round"/>
</svg>
