<svg width="33" height="33" viewBox="0 0 33 33" fill="none" xmlns="http://www.w3.org/2000/svg">
<ellipse cx="16.6757" cy="16.0537" rx="15.8559" ry="16" fill="#53BC22" fill-opacity="0.1"/>
<path d="M11.6802 19.4634C13.0583 20.854 15.4122 22.7286 16.7979 23.7979C18.0612 22.852 20.6378 20.854 22.0158 19.4634" stroke="#53BC22" stroke-width="1.5" stroke-linecap="round" stroke-linejoin="round"/>
<path d="M8.92432 17.7525H13.4973L15.2089 13.6812L16.5538 20.7134L17.8987 16.3954L18.51 17.7525H24.4278" stroke="#53BC22" stroke-width="1.5" stroke-linecap="round" stroke-linejoin="round"/>
<path d="M10.3025 15.9866C10.3025 15.9866 9.95801 15.2913 9.95801 14.596C9.95801 12.9922 11.0356 10.7202 13.6271 10.7202C15.7003 10.7202 16.6112 12.0362 16.8076 12.6942C17.0824 12.0362 18.1033 10.7202 19.988 10.7202C22.3439 10.7202 23.6396 12.9409 23.6396 14.5448C23.6396 15.2913 23.3944 15.9866 23.3944 15.9866" stroke="#53BC22" stroke-width="1.5" stroke-linecap="round" stroke-linejoin="round"/>
</svg>
