<svg width="4" height="18" viewBox="0 0 4 18" fill="none" xmlns="http://www.w3.org/2000/svg">
<path d="M1.6875 3.375C2.61562 3.375 3.375 2.61562 3.375 1.6875C3.375 0.759375 2.61562 0 1.6875 0C0.759375 0 0 0.759375 0 1.6875C0 2.61562 0.759375 3.375 1.6875 3.375Z" fill="#5789DB"/>
<path d="M1.6875 10.6875C2.61562 10.6875 3.375 9.92812 3.375 9C3.375 8.07187 2.61562 7.3125 1.6875 7.3125C0.759375 7.3125 0 8.07187 0 9C0 9.92812 0.759375 10.6875 1.6875 10.6875Z" fill="#5789DB"/>
<path d="M1.6875 18C2.61562 18 3.375 17.2406 3.375 16.3125C3.375 15.3844 2.61562 14.625 1.6875 14.625C0.759375 14.625 0 15.3844 0 16.3125C0 17.2406 0.759375 18 1.6875 18Z" fill="#5789DB"/>
</svg>
