<svg width="33" height="32" viewBox="0 0 33 32" fill="none" xmlns="http://www.w3.org/2000/svg">
<ellipse cx="16.6757" cy="16" rx="15.8559" ry="16" fill="#E8B810" fill-opacity="0.1"/>
<path d="M16.6755 11.3779C17.4539 11.3779 18.0849 10.7411 18.0849 9.95567C18.0849 9.1702 17.4539 8.53345 16.6755 8.53345C15.8971 8.53345 15.2661 9.1702 15.2661 9.95567C15.2661 10.7411 15.8971 11.3779 16.6755 11.3779Z" stroke="#E8B810" stroke-width="1.5" stroke-miterlimit="10"/>
<path d="M22.639 13.2448C22.5811 13.0443 22.3663 12.7254 21.8151 12.8159C21.1823 12.9199 18.7197 13.1999 16.6754 13.1999C14.6312 13.1999 12.1685 12.9202 11.5358 12.8159C10.9846 12.7252 10.7697 13.044 10.7121 13.2448C10.6542 13.4454 10.6436 13.8687 11.1948 13.9691C11.6559 14.0533 13.4864 14.2971 13.9317 14.3448C14.3769 14.3924 14.9491 14.5468 14.9491 15.1528C14.9491 15.7588 14.9491 17.4076 14.9491 17.9127C14.9491 18.4179 13.721 23.0081 13.6068 23.4349C13.4926 23.8617 13.7878 24.096 14.0026 24.1532C14.2724 24.2251 14.6682 24.1483 14.7866 23.8047C14.8921 23.4985 15.8371 19.875 16.0236 19.3082C16.2103 18.7413 16.5016 18.7021 16.6759 18.7021C16.8501 18.7021 17.1415 18.7413 17.3282 19.3082C17.5148 19.875 18.4596 23.4987 18.5651 23.8047C18.6835 24.1483 19.0791 24.2251 19.3491 24.1532C19.564 24.096 19.8591 23.8617 19.7449 23.4349C19.6307 23.0081 18.4026 18.4179 18.4026 17.9127C18.4026 17.4076 18.4026 15.7588 18.4026 15.1528C18.4026 14.5468 18.9749 14.3922 19.4201 14.3448C19.8653 14.2973 21.6958 14.0533 22.157 13.9691C22.7075 13.8687 22.6969 13.4454 22.639 13.2448Z" stroke="#E8B810" stroke-width="1.5" stroke-miterlimit="10"/>
</svg>
