<svg width="119" height="25" viewBox="0 0 119 25" fill="none" xmlns="http://www.w3.org/2000/svg">
<path d="M0.563477 24H8.88379C15.2119 24 18.8008 20.1328 18.8008 13.3066V13.2773C18.8008 6.65625 15.168 2.8623 8.88379 2.8623H0.563477V24ZM4.9873 20.3525V6.50977H8.18066C12.0186 6.50977 14.2891 9 14.2891 13.3506V13.3799C14.2891 17.8916 12.0918 20.3525 8.18066 20.3525H4.9873ZM21.8301 24H26.1074V14.9766C26.1074 12.6914 27.6455 11.2998 30.0771 11.2998C30.7363 11.2998 31.3955 11.4023 32.04 11.5488V7.81348C31.6152 7.69629 31.0146 7.6084 30.4434 7.6084C28.3486 7.6084 26.8838 8.63379 26.3711 10.377H26.1074V7.87207H21.8301V24ZM34.6445 24.3662C36.1533 24.3662 37.2227 23.2676 37.2227 21.8174C37.2227 20.3672 36.1533 19.2832 34.6445 19.2832C33.1504 19.2832 32.0664 20.3672 32.0664 21.8174C32.0664 23.2676 33.1504 24.3662 34.6445 24.3662ZM48.9531 24.542C54.0508 24.542 57.6689 21.5244 58.123 17.1006L58.1377 16.9395H53.8311L53.8018 17.0566C53.333 19.3125 51.502 20.792 48.9678 20.792C45.6279 20.792 43.5625 17.9795 43.5625 13.4385V13.4092C43.5625 8.86816 45.6279 6.07031 48.9531 6.07031C51.4727 6.07031 53.3623 7.68164 53.8164 10.0547V10.1572H58.123V9.98145C57.7129 5.51367 53.9629 2.32031 48.9531 2.32031C42.8154 2.32031 39.0361 6.55371 39.0361 13.4092V13.4385C39.0361 20.2939 42.8301 24.542 48.9531 24.542ZM61.1816 24H65.459V14.6689C65.459 12.4863 66.6602 11.0654 68.6377 11.0654C70.6592 11.0654 71.5967 12.2666 71.5967 14.5371V24H75.874V13.5703C75.874 9.71777 73.9404 7.52051 70.3516 7.52051C68.0518 7.52051 66.4551 8.61914 65.7227 10.3623H65.459V1.70508H61.1816V24ZM83.6641 24.249C85.7734 24.249 87.4727 23.3555 88.293 21.8613H88.5566V24H92.7754V12.9844C92.7754 9.54199 90.3584 7.52051 86.0811 7.52051C82.0234 7.52051 79.3574 9.39551 79.0205 12.2227L79.0059 12.3545H82.9609L82.9902 12.2959C83.3271 11.3438 84.3086 10.8018 85.8467 10.8018C87.6045 10.8018 88.5566 11.5928 88.5566 12.9844V14.3174L84.6602 14.5518C80.6465 14.7861 78.4053 16.4854 78.4053 19.3857V19.415C78.4053 22.3447 80.5879 24.249 83.6641 24.249ZM82.5801 19.1514V19.1221C82.5801 17.9502 83.4736 17.2617 85.3047 17.1445L88.5566 16.9395V18.126C88.5566 19.8252 87.0771 21.1289 85.0996 21.1289C83.6201 21.1289 82.5801 20.3818 82.5801 19.1514ZM98.3975 5.39648C99.7158 5.39648 100.8 4.3418 100.8 3.02344C100.8 1.69043 99.7158 0.635742 98.3975 0.635742C97.0791 0.635742 95.9805 1.69043 95.9805 3.02344C95.9805 4.3418 97.0791 5.39648 98.3975 5.39648ZM96.2441 24H100.521V7.87207H96.2441V24ZM104.078 24H108.355V14.6689C108.355 12.4863 109.557 11.0654 111.534 11.0654C113.556 11.0654 114.493 12.2666 114.493 14.5371V24H118.771V13.5703C118.771 9.71777 116.837 7.52051 113.248 7.52051C110.948 7.52051 109.352 8.61914 108.619 10.3623H108.355V7.87207H104.078V24Z" fill="#434343"/>
</svg>
