<svg width="66" height="60" viewBox="0 0 66 60" fill="none" xmlns="http://www.w3.org/2000/svg">
<path d="M32.5293 11.5908H29.5949C29.3528 10.6481 28.9831 9.7583 28.5011 8.94034L30.5537 6.88187C31.0548 6.37862 31.0548 5.56359 30.5537 5.06035L28.7381 3.23883C28.237 2.73558 27.4242 2.73558 26.9224 3.23883L24.8698 5.29803C24.0454 4.80971 23.156 4.44047 22.2281 4.20131V1.28966C22.2281 0.57734 21.6508 0 20.9385 0H18.3826C17.6703 0 17.093 0.57734 17.093 1.28966V4.22478C16.1503 4.46687 15.2612 4.8366 14.4432 5.31857L12.3833 3.26524C11.88 2.76419 11.065 2.76419 10.5618 3.26524L8.74025 5.08089C8.237 5.58267 8.237 6.39476 8.74025 6.89654L10.8009 8.94987C10.3131 9.77429 9.94387 10.6634 9.70419 11.5908H6.79108C6.07876 11.5908 5.50142 12.1682 5.50142 12.8805V15.4363C5.50142 16.1487 6.07876 16.726 6.79108 16.726H9.72693C9.96902 17.6745 10.3388 18.5688 10.82 19.3919L8.76592 21.465C8.26488 21.9712 8.26488 22.7921 8.76592 23.2975L10.5816 25.1308C11.0826 25.637 11.8954 25.637 12.3972 25.1308L14.452 23.0577C15.2757 23.5487 16.1649 23.9205 17.093 24.1617V27.1005C17.093 27.8128 17.6703 28.3902 18.3826 28.3902H20.9385C21.6508 28.3902 22.2281 27.8128 22.2281 27.1005V24.092C23.1584 23.8535 24.0506 23.4856 24.8786 22.999L26.9378 25.0516C27.4411 25.5526 28.2561 25.5526 28.7593 25.0516L30.5809 23.2359C31.0841 22.7349 31.0841 21.9221 30.5809 21.4203L28.5217 19.3677C29.01 18.5429 29.3795 17.6533 29.6191 16.7253H32.53C33.2424 16.7253 33.8197 16.1479 33.8197 15.4356V12.8797C33.819 12.1682 33.2416 11.5908 32.5293 11.5908ZM19.6525 19.3515C16.8039 19.3515 14.4946 17.0422 14.4946 14.1936C14.4946 11.3451 16.8039 9.0357 19.6525 9.0357C22.501 9.0357 24.8104 11.3451 24.8104 14.1936C24.8111 17.0422 22.5018 19.3515 19.6525 19.3515Z" fill="black" fill-opacity="0.75"/>
<path d="M57.5873 30.2284C57.1978 30.2284 56.8148 30.2563 56.44 30.3099L50.8962 18.8181C52.5262 17.3281 53.5503 15.1853 53.5503 12.8084C53.5503 8.3181 49.897 4.66479 45.4067 4.66479C40.9163 4.66479 37.2638 8.3181 37.2638 12.8084C37.2638 15.2322 38.3289 17.4118 40.0147 18.9054L29.0387 43.7603C28.7511 43.7295 28.4584 43.7134 28.1628 43.7134C26.3478 43.7134 24.6694 44.3105 23.3144 45.3185L15.7254 39.1666C16.087 38.2466 16.2858 37.2445 16.2858 36.1977C16.2858 31.7074 12.6333 28.0548 8.14292 28.0548C3.65258 28.0548 0 31.7081 0 36.1977C0 40.6873 3.65258 44.3406 8.14292 44.3406C9.79278 44.3406 11.3289 43.8469 12.6135 43.0003L20.4211 49.3305C20.1545 50.1462 20.0191 50.9989 20.0198 51.857C20.0198 56.3474 23.6724 60 28.1628 60C32.6531 60 36.3057 56.3467 36.3057 51.857C36.3057 49.4332 35.2405 47.253 33.5547 45.7601L44.5315 20.9044C44.8191 20.9352 45.1118 20.9514 45.4074 20.9514C45.7478 20.9514 46.083 20.9301 46.4124 20.889L51.9936 32.4586C50.4245 33.9441 49.4444 36.0451 49.4444 38.3706C49.4444 42.861 53.097 46.5135 57.5873 46.5135C62.0776 46.5135 65.7302 42.8602 65.7302 38.3706C65.7302 33.8817 62.0769 30.2284 57.5873 30.2284ZM8.14292 39.402C6.37568 39.402 4.93857 37.9642 4.93857 36.1977C4.93857 34.4305 6.37642 32.9933 8.14292 32.9933C9.91015 32.9933 11.3473 34.4312 11.3473 36.1977C11.3473 37.9649 9.91015 39.402 8.14292 39.402ZM28.1628 55.0614C26.3955 55.0614 24.9584 53.6235 24.9584 51.857C24.9584 50.0898 26.3963 48.652 28.1628 48.652C29.93 48.652 31.3671 50.0898 31.3671 51.857C31.3671 53.6235 29.9293 55.0614 28.1628 55.0614ZM45.4067 9.6041C47.1739 9.6041 48.6118 11.0419 48.6118 12.8092C48.6118 14.5764 47.1739 16.0135 45.4067 16.0135C43.6394 16.0135 42.2023 14.5757 42.2023 12.8092C42.2023 11.0412 43.6402 9.6041 45.4067 9.6041ZM57.5873 41.5764C55.8201 41.5764 54.383 40.1386 54.383 38.3721C54.383 36.6048 55.8208 35.167 57.5873 35.167C59.3545 35.167 60.7924 36.6048 60.7924 38.3721C60.7917 40.1386 59.3538 41.5764 57.5873 41.5764Z" fill="black" fill-opacity="0.75"/>
</svg>
