<svg width="37" height="40" viewBox="0 0 37 40" fill="none" xmlns="http://www.w3.org/2000/svg">
<path d="M34.8017 11.5597C33.8968 10.6446 32.7834 10.1811 31.4911 10.1811C30.1996 10.1811 29.0853 10.6455 28.1814 11.5597C27.2774 12.4747 26.8195 13.6017 26.8195 14.9099C26.8195 15.9227 27.1095 16.8421 27.6811 17.6412C28.256 18.4438 29.0158 19.0258 29.9384 19.37L30.1716 19.4567V30.1803C30.1716 32.1605 29.2982 33.8695 27.5759 35.2609C25.8774 36.6326 23.8108 37.3279 21.4347 37.3279C19.0587 37.3279 16.9921 36.6326 15.2927 35.2609C13.5704 33.8695 12.697 32.1605 12.697 30.1803V26.3614L13.0108 26.3227C15.7812 25.9811 18.1259 24.873 19.9804 23.0292C21.8214 21.2 22.7551 19.0386 22.7551 16.606V3.03262C22.7551 2.66953 22.6262 2.36309 22.3616 2.09442C22.097 1.82661 21.7934 1.69614 21.4347 1.69614C21.3796 1.69614 21.2753 1.70386 21.0854 1.74249L20.8327 1.79313L20.7055 1.56567C20.4409 1.0927 20.0695 0.709013 19.6005 0.424893C19.1367 0.143348 18.6253 0 18.0826 0C17.2482 0 16.5554 0.290987 15.9643 0.888412C15.3741 1.48584 15.0867 2.18798 15.0867 3.03262C15.0867 3.87725 15.3741 4.57854 15.9643 5.17682C16.5554 5.77511 17.2482 6.06524 18.0826 6.06524C18.5923 6.06524 19.096 5.92103 19.5793 5.63691L20.1153 5.32189V16.6069C20.1153 18.5871 19.2418 20.2961 17.5195 21.6876C15.821 23.0584 13.7545 23.7545 11.3775 23.7545C9.0006 23.7545 6.93489 23.0592 5.23636 21.6876C3.51409 20.2961 2.64065 18.5871 2.64065 16.6069V5.32189L3.17658 5.63691C3.65994 5.92103 4.16365 6.06524 4.67329 6.06524C5.50772 6.06524 6.20053 5.77425 6.79158 5.17682C7.38178 4.5794 7.66925 3.87725 7.66925 3.03262C7.66925 2.18712 7.38263 1.48584 6.79158 0.888412C6.19968 0.290987 5.50687 0 4.67244 0C4.12888 0 3.61839 0.143348 3.15369 0.425751C2.6856 0.71073 2.31417 1.09442 2.0496 1.56652L1.9224 1.79313L1.6697 1.74249C1.47975 1.70386 1.3746 1.69614 1.31948 1.69614C0.960777 1.69614 0.657195 1.82661 0.392621 2.09442C0.128895 2.36223 0 2.66953 0 3.03262V16.6069C0 19.0395 0.933641 21.2 2.77379 23.03C4.62835 24.873 6.97305 25.9811 9.74345 26.3236L10.0572 26.3622V30.1811C10.0572 32.8678 11.174 35.1974 13.3771 37.1047C15.5963 39.0257 18.3065 40 21.4347 40C24.563 40 27.274 39.0257 29.4924 37.1047C31.6946 35.1983 32.8114 32.8687 32.8114 30.1811V19.4567L33.0446 19.37C33.9681 19.0258 34.7279 18.4438 35.302 17.6412C35.8744 16.8421 36.1644 15.9236 36.1644 14.9107C36.1644 13.6017 35.7056 12.4738 34.8017 11.5597ZM32.9234 16.3579C32.5231 16.7622 32.0414 16.9674 31.4919 16.9674C30.9424 16.9674 30.4608 16.7622 30.0614 16.3579C29.662 15.9536 29.4593 15.4661 29.4593 14.9099C29.4593 14.3536 29.662 13.8661 30.0614 13.4618C30.4616 13.0575 30.9433 12.8524 31.4919 12.8524C32.0414 12.8524 32.5223 13.0575 32.9225 13.4609C33.3219 13.8652 33.5246 14.3528 33.5246 14.9099C33.5246 15.467 33.3228 15.9536 32.9234 16.3579Z" fill="#5789DB"/>
</svg>
