<svg width="48" height="60" viewBox="0 0 48 60" fill="none" xmlns="http://www.w3.org/2000/svg">
<path d="M46.7187 48.3863C44.6364 42.651 40.2237 37.8257 34.6363 35.0373C37.5936 32.1058 39.2922 28.0957 39.2922 23.8373C39.2922 22.8015 39.1809 21.7297 38.9583 20.6491C39.1055 18.4846 39.6312 10.3401 39.5251 6.11615L39.5114 5.56467L39.1877 5.12008C38.8076 4.59619 35.1397 0 23.6413 0C12.1428 0 8.4749 4.59619 8.09477 5.12008L7.77115 5.56467L7.75748 6.11615C7.65133 10.3349 8.177 18.4829 8.3243 20.6491C8.1017 21.7296 7.99038 22.8015 7.99038 23.8373C7.99038 28.0957 9.69077 32.1058 12.6463 35.0391C7.05717 37.8291 2.63932 42.6717 0.521085 48.5225C-0.381341 51.8227 -0.11073 54.5542 1.32586 56.6429C3.37041 59.6139 7.0006 59.9793 7.31229 60H40.0491L40.1296 59.9931C40.282 59.9793 43.9122 59.614 45.9568 56.6429C47.3933 54.5542 47.6638 51.8226 46.7187 48.3863ZM11.2522 6.88134C12.2762 5.9593 15.7283 3.52943 23.6411 3.52943C31.5813 3.52943 35.0301 5.97658 36.0301 6.87619C36.0576 9.83386 35.8341 14.2974 35.6505 17.3995C33.3161 16.3326 29.4077 15.1309 23.6412 15.1309C18.0572 15.1309 14.0349 16.4057 11.637 17.4796C11.4529 14.3754 11.2257 9.8621 11.2522 6.88134ZM11.4971 23.8373C11.4971 23.0397 11.5863 22.2079 11.7596 21.3615C13.2562 20.5181 17.2751 18.6604 23.6412 18.6604C30.4321 18.6604 34.1784 20.4866 35.51 21.3001C35.6918 22.1677 35.7853 23.0204 35.7853 23.8373C35.7853 27.904 33.7845 31.6785 30.4258 33.9639C23.8008 36.7607 17.7369 34.3486 16.872 33.9745C13.504 31.6901 11.4971 27.9102 11.4971 23.8373ZM43.0884 54.611C42.0987 56.0724 40.2271 56.417 39.8623 56.4705L7.48337 56.4791C7.46114 56.4774 5.28815 56.2276 4.19391 54.611C3.38914 53.4236 3.29148 51.6916 3.8583 49.5961C5.84525 44.1223 10.3464 39.6108 15.9689 37.4173C17.2446 37.9173 20.0956 38.8425 23.7303 38.8425C26.0119 38.8425 28.6025 38.4765 31.3029 37.4132C36.9303 39.6049 41.4327 44.1125 43.3812 49.46C43.9908 51.6916 43.8932 53.4236 43.0884 54.611ZM22.4768 13.6712H24.8074V10.5762H27.8793V8.23238H24.8074V5.14069H22.4768V8.23238H19.4031V10.5762H22.4768V13.6712Z" fill="black" fill-opacity="0.75"/>
</svg>
