<svg width="51" height="50" viewBox="0 0 51 50" fill="none" xmlns="http://www.w3.org/2000/svg">
<path d="M44.0771 21.4353C42.9574 21.4353 42.048 22.3395 42.048 23.4591V41.0795C42.0427 43.7709 39.8612 45.9471 37.1698 45.9471H8.94157C6.25017 45.9471 4.06865 43.7709 4.0634 41.0795V12.9248C4.06865 10.2334 6.25017 8.05714 8.94157 8.05714H26.6092C27.7289 8.07817 28.6488 7.18453 28.6698 6.06487C28.6908 4.9452 27.7972 4.02528 26.6775 4.00426H8.94157C4.01083 4.00426 0.0105133 7.99406 0 12.9195V41.0742C0.0105133 46.0102 4.01083 50 8.94157 50H37.1698C42.1006 50 46.1009 46.0102 46.1114 41.0795V23.4644C46.1114 22.3395 45.202 21.4353 44.0771 21.4353ZM49.0131 5.89665L44.3714 1.26554C42.6735 -0.421847 39.9348 -0.421847 38.2422 1.26554L16.3903 23.0596V23.0649L16.3797 23.0754C15.8058 23.6498 15.4066 24.3753 15.2285 25.1676L13.5411 32.6425C13.1574 34.3562 14.235 36.0541 15.9487 36.4378C16.1747 36.4904 16.406 36.5167 16.6426 36.5167C16.8476 36.5167 17.0526 36.4957 17.2523 36.4589L24.9481 34.966C25.7944 34.803 26.5777 34.3877 27.1874 33.778L27.1927 33.7727L49.0131 12.0049C50.7057 10.3228 50.7057 7.58404 49.0131 5.89665C49.0183 5.89665 49.0183 5.89665 49.0131 5.89665ZM18.6979 28.2164L21.9308 31.423L17.799 32.2272L18.6979 28.2164ZM46.1429 9.14527L25.7471 29.4885L20.706 24.4894L41.1176 4.13042C41.2227 4.02528 41.3962 4.02528 41.5013 4.13042L46.1429 8.76153C46.2481 8.86666 46.2481 9.03488 46.1429 9.14527Z" fill="#294F8C"/>
</svg>
