<svg width="30" height="41" viewBox="0 0 30 41" fill="none" xmlns="http://www.w3.org/2000/svg">
<path d="M27.9277 18.4217C27.2621 17.6617 26.3733 17.14 25.3887 16.9259V11.1875C25.4062 8.27169 24.2241 5.42752 22.1491 3.38585C20.1323 1.37669 17.4784 0.27002 14.6769 0.27002H14.5436C8.57424 0.278353 3.71692 5.17502 3.71692 11.1842V16.9259C2.73229 17.14 1.84347 17.66 1.17955 18.4184C0.419007 19.2875 0 20.4159 0 21.5967V35.4634C0 38.1134 2.13002 40.27 4.74819 40.27H24.3666C26.9847 40.27 29.1148 38.1134 29.1148 35.4625V21.5942C29.1098 20.4175 28.6883 19.2909 27.9277 18.4217ZM6.38174 16.855V11.695H6.39007V11.185C6.39007 6.62752 10.052 2.91919 14.5536 2.91919H14.5636C14.5728 2.91919 14.5828 2.91919 14.5919 2.91919C16.6986 2.91919 18.7654 3.77419 20.2656 5.26752C21.8334 6.82085 22.7239 8.97585 22.708 11.185V16.8559H6.38174V16.855ZM26.5157 21.6375V35.4875C26.5157 36.6509 25.5703 37.5967 24.4074 37.5967H4.78068C3.61779 37.5967 2.67232 36.6509 2.67232 35.4875V21.6375C2.67232 20.4742 3.61779 19.5284 4.78068 19.5284H24.4074C25.5703 19.5284 26.5157 20.475 26.5157 21.6375Z" fill="#5789DB"/>
<path d="M14.5535 23.8833C12.6276 23.8833 11.0615 25.4508 11.0615 27.3766C11.0615 28.7941 11.9312 30.0675 13.2174 30.5983V32.55C13.2174 33.2866 13.8171 33.8866 14.5535 33.8866C15.2899 33.8866 15.8897 33.2866 15.8897 32.55V30.5983C16.6211 30.2966 17.2242 29.7591 17.6107 29.055C18.0589 28.24 18.1622 27.3 17.9014 26.4091C17.4791 24.9216 16.1021 23.8833 14.5535 23.8833ZM15.3732 27.3683C15.3732 27.8208 15.0059 28.1883 14.5535 28.1883C14.1012 28.1883 13.7338 27.8208 13.7338 27.3683C13.7338 26.9158 14.1012 26.5483 14.5535 26.5483C15.0059 26.5483 15.3732 26.9158 15.3732 27.3683Z" fill="#5789DB"/>
</svg>
