<svg width="52" height="50" viewBox="0 0 52 50" fill="none" xmlns="http://www.w3.org/2000/svg">
<path d="M38.6907 3.43827C26.4527 -3.54505 10.7105 0.446607 3.53435 12.3549C-3.64423 24.2632 0.45956 39.5798 12.6988 46.5631C24.9367 53.5441 40.6765 49.5536 47.8551 37.6441C55.0324 25.7358 50.9299 10.4204 38.6907 3.43827ZM25.6953 47.6179C12.8554 47.6179 2.44783 37.4917 2.44783 25.0001C2.44783 20.9466 3.55759 17.1513 5.47735 13.8609L15.6695 19.8406C15.8213 20.6704 16.0966 21.4513 16.5236 22.1704C17.1867 23.2858 18.195 24.2204 19.5482 24.9727C20.5919 25.562 22.415 26.1882 25.0175 26.8513C27.62 27.5156 29.3011 28.0049 30.0622 28.3192C30.1601 28.3584 30.2408 28.4037 30.335 28.4441L31.8522 29.3346C32.1508 29.5715 32.4151 29.8215 32.6133 30.0941C33.1284 30.8001 33.3866 31.6239 33.3866 32.5679C33.3866 33.4989 33.1186 34.3584 32.5852 35.1453C32.0492 35.9322 31.2343 36.5513 30.1405 37.0037C29.0442 37.4548 27.7827 37.681 26.3524 37.681C24.741 37.681 23.2923 37.3834 22.0039 36.7882C20.7155 36.1917 19.7648 35.412 19.153 34.4465C18.5412 33.481 18.1509 32.2465 17.9833 30.7418L14.446 31.0691C14.4974 33.081 15.0162 34.8846 16.0011 36.4798C16.9873 38.0739 18.3467 39.2691 20.0792 40.062C21.2012 40.5763 22.5165 40.906 23.9872 41.0858V46.6512H27.6579V41.1953C29.2302 41.0739 30.6764 40.7084 31.9832 40.0727C33.6007 39.2858 34.8414 38.1834 35.704 36.7679C36.5458 35.3834 36.9716 33.9108 36.9924 32.3513L45.2526 37.1977C41.1182 43.4596 33.9127 47.6179 25.6953 47.6179ZM46.4615 35.1263L36.4528 29.2537C36.2791 28.8049 36.0784 28.368 35.819 27.9596C35.0323 26.7215 33.8148 25.6989 32.1667 24.8906C31.0325 24.343 28.9426 23.7025 25.896 22.9704C25.8018 22.9477 25.7186 22.9251 25.6268 22.9025L19.2827 19.1811C19.1983 18.8585 19.1408 18.5227 19.1408 18.1561C19.1408 16.9108 19.6595 15.8466 20.6959 14.9632C21.7335 14.0799 23.3853 13.6394 25.6537 13.6394C27.8304 13.6394 29.4773 14.1251 30.592 15.0966C31.7054 16.068 32.36 17.5061 32.5546 19.4085L36.1494 19.1216C36.0845 17.3561 35.6208 15.7751 34.7582 14.3787C33.8944 12.9823 32.661 11.9251 31.0569 11.2061C29.9447 10.7085 28.704 10.3942 27.352 10.2406V4.68707H23.6814V10.2537C22.4786 10.4049 21.3468 10.6966 20.3019 11.1549C18.7431 11.8394 17.5575 12.8418 16.7463 14.162C16.1847 15.0775 15.8298 16.043 15.6573 17.0513L6.79878 11.8561C11.0164 6.12754 17.8989 2.38113 25.6953 2.38113C38.5353 2.38113 48.9428 12.5073 48.9428 25.0001C48.9428 28.6453 48.0362 32.0763 46.4615 35.1263Z" fill="#294F8C"/>
</svg>
