<svg width="53" height="50" viewBox="0 0 53 50" fill="none" xmlns="http://www.w3.org/2000/svg">
<path d="M42.1598 49.9999H10.5436C9.41483 49.9999 8.50419 49.0892 8.50419 47.9604C8.50419 46.8316 9.41483 45.921 10.5436 45.921H42.1645C43.2933 45.921 44.204 46.8316 44.204 47.9604C44.204 49.0892 43.2886 49.9999 42.1598 49.9999ZM42.1598 42.4397H10.5436C9.57134 42.4397 8.73659 41.7567 8.54688 40.7987L3.27278 14.4519C3.10203 13.5981 3.49095 12.7349 4.24033 12.2938C4.99919 11.8575 5.94303 11.9429 6.59755 12.5025L17.0936 21.5045L24.6253 9.46234C24.9952 8.86473 25.6498 8.50427 26.3517 8.50427C27.0584 8.50427 27.7082 8.86473 28.0781 9.46234L35.6051 21.5045L46.1011 12.5025C46.7651 11.9429 47.7042 11.8575 48.4583 12.2938C49.2077 12.7349 49.5966 13.5981 49.4259 14.4519L44.1613 40.7987C43.9716 41.7567 43.1321 42.4397 42.1598 42.4397ZM12.2179 38.3608H40.4903L44.2751 19.4414L36.4588 26.1431C36.0082 26.5273 35.3727 26.698 34.8273 26.6079C34.2391 26.5225 33.7222 26.1763 33.4044 25.6736L26.3517 14.3855L19.2943 25.6736C18.9812 26.181 18.4643 26.5225 17.8714 26.6079C17.3117 26.6933 16.6904 26.5273 16.2399 26.1431L8.42831 19.4414L12.2179 38.3608Z" fill="#294F8C"/>
<path d="M23.7146 2.63705C23.7146 3.33644 23.9924 4.00718 24.487 4.50173C24.9815 4.99627 25.6523 5.2741 26.3516 5.2741C27.051 5.2741 27.7218 4.99627 28.2163 4.50173C28.7109 4.00718 28.9887 3.33644 28.9887 2.63705C28.9887 1.93766 28.7109 1.26692 28.2163 0.772374C27.7218 0.277831 27.051 0 26.3516 0C25.6523 0 24.9815 0.277831 24.487 0.772374C23.9924 1.26692 23.7146 1.93766 23.7146 2.63705Z" fill="#294F8C"/>
<path d="M47.429 7.90562C47.429 8.25196 47.4971 8.59491 47.6296 8.9149C47.7621 9.23488 47.9564 9.52563 48.2013 9.77055C48.4461 10.0155 48.7369 10.2097 49.0568 10.3423C49.3768 10.4748 49.7197 10.5431 50.0661 10.5431C50.4124 10.5431 50.7553 10.4748 51.0753 10.3423C51.3953 10.2097 51.686 10.0155 51.9309 9.77055C52.1758 9.52563 52.37 9.23488 52.5025 8.9149C52.635 8.59491 52.7032 8.25196 52.7031 7.90562C52.7032 7.55929 52.635 7.21634 52.5025 6.89635C52.37 6.57636 52.1758 6.28561 51.9309 6.0407C51.686 5.79578 51.3953 5.60151 51.0753 5.46896C50.7553 5.33641 50.4124 5.26819 50.0661 5.26819C49.7197 5.26819 49.3768 5.33641 49.0568 5.46896C48.7369 5.60151 48.4461 5.79578 48.2013 6.0407C47.9564 6.28561 47.7621 6.57636 47.6296 6.89635C47.4971 7.21634 47.429 7.55929 47.429 7.90562Z" fill="#294F8C"/>
<path d="M2.79783e-08 7.90562C-5.04198e-05 8.25196 0.0681215 8.59491 0.200623 8.9149C0.333125 9.23488 0.52736 9.52563 0.772238 9.77055C1.01712 10.0155 1.30784 10.2097 1.62781 10.3423C1.94777 10.4748 2.29072 10.5431 2.63705 10.5431C2.98338 10.5431 3.32633 10.4748 3.64629 10.3423C3.96626 10.2097 4.25698 10.0155 4.50186 9.77055C4.74674 9.52563 4.94098 9.23488 5.07348 8.9149C5.20598 8.59491 5.27415 8.25196 5.2741 7.90562C5.27415 7.55929 5.20598 7.21634 5.07348 6.89635C4.94098 6.57636 4.74674 6.28561 4.50186 6.0407C4.25698 5.79578 3.96626 5.60151 3.64629 5.46896C3.32633 5.33641 2.98338 5.26819 2.63705 5.26819C2.29072 5.26819 1.94777 5.33641 1.62781 5.46896C1.30784 5.60151 1.01712 5.79578 0.772238 6.0407C0.52736 6.28561 0.333125 6.57636 0.200623 6.89635C0.0681215 7.21634 -5.04198e-05 7.55929 2.79783e-08 7.90562Z" fill="#294F8C"/>
</svg>
