<svg width="48" height="50" viewBox="0 0 48 50" fill="none" xmlns="http://www.w3.org/2000/svg">
<path d="M4.48736 45.4545H15.7058C16.945 45.4545 17.9495 46.4721 17.9495 47.7273C17.9495 48.9825 16.945 50 15.7058 50H3.36555C1.50677 50 0 48.4737 0 46.5909V3.40911C0 1.5263 1.50677 0 3.36555 0H41.5082C43.3669 0 44.8736 1.5263 44.8736 3.40911V18.1818C44.8736 19.437 43.8691 20.4545 42.63 20.4545C41.3908 20.4545 40.3863 19.437 40.3863 18.1818V4.54547H4.48736V45.4545ZM11.2173 13.6364H33.6564C34.8949 13.6364 35.899 14.6534 35.899 15.9079V15.9103C35.899 17.1648 34.8949 18.1818 33.6564 18.1818H11.2173C9.97878 18.1818 8.97472 17.1648 8.97472 15.9103V15.9079C8.97472 14.6534 9.97878 13.6364 11.2173 13.6364ZM11.2173 22.7273H26.9253C28.1639 22.7273 29.1679 23.7443 29.1679 24.9988V25.0012C29.1679 26.2557 28.1639 27.2727 26.9253 27.2727H11.2173C9.97878 27.2727 8.97472 26.2557 8.97472 25.0012V24.9988C8.97472 23.7443 9.97878 22.7273 11.2173 22.7273ZM45.13 34.8692L31.5084 48.6671C30.6669 49.5195 29.5255 49.9984 28.3354 49.9984H25.1623C22.684 49.9984 20.6749 47.9634 20.6749 45.453V42.2389C20.6749 41.6419 20.791 41.0509 21.0165 40.4994C21.242 39.9479 21.5725 39.4468 21.9892 39.0247L35.6108 25.2268C38.2394 22.5642 42.5013 22.5642 45.13 25.2268C47.7586 27.8895 47.7586 32.2065 45.13 34.8692ZM38.7839 28.4409L25.1623 42.2388V45.4529H28.3354L41.9569 31.6551C42.8331 30.7675 42.8331 29.3285 41.9569 28.4409C41.0807 27.5534 39.6601 27.5534 38.7839 28.4409Z" fill="#294F8C"/>
</svg>
