<svg width="40" height="40" viewBox="0 0 40 40" fill="none" xmlns="http://www.w3.org/2000/svg">
<path d="M20 40C17.5874 40 15.6248 38.0375 15.6248 35.625V34.3516C14.6982 34.0695 13.8021 33.6984 12.9458 33.2414L12.045 34.1422C11.2192 34.968 10.1199 35.4234 8.95191 35.4234C7.78233 35.4234 6.68385 34.9688 5.85804 34.1422C4.1525 32.4359 4.1525 29.6602 5.85804 27.9547L6.75886 27.0539C6.30181 26.1977 5.9307 25.3016 5.64866 24.375H4.37517C3.20716 24.375 2.10868 23.9195 1.28208 23.093C0.455489 22.2664 0 21.168 0 20C0 17.5875 1.96258 15.625 4.37517 15.625H5.64866C5.9307 14.6984 6.30181 13.8023 6.75886 12.9461L5.85804 12.0453C5.03223 11.2195 4.57674 10.1211 4.57674 8.95234C4.57674 7.78281 5.03145 6.68437 5.85804 5.85859C7.56436 4.15312 10.3403 4.15312 12.0458 5.85859L12.9466 6.75937C13.8029 6.30234 14.699 5.93125 15.6256 5.64922V4.375C15.6256 3.20703 16.0811 2.10859 16.9069 1.28203C17.7335 0.455469 18.832 0 20 0C20.2906 0 20.5836 0.0296875 20.8711 0.0867188C22.9025 0.499219 24.3752 2.30234 24.3752 4.375V5.64844C25.3018 5.93047 26.1979 6.30156 27.0542 6.75859L27.955 5.85781C28.7808 5.03203 29.8801 4.57656 31.0481 4.57656C32.2177 4.57656 33.3161 5.03125 34.142 5.85781C35.8475 7.56406 35.8475 10.3398 34.142 12.0453L33.2411 12.9461C33.6982 13.8023 34.0701 14.6984 34.3513 15.625H35.6248C36.7928 15.625 37.8913 16.0805 38.7179 16.907C39.5445 17.7336 40 18.832 40 20C40 22.4125 38.0374 24.375 35.6248 24.375H34.3513C34.0693 25.3016 33.6982 26.1977 33.2411 27.0539L34.142 27.9547C34.9678 28.7805 35.4233 29.8797 35.4233 31.0477C35.4233 32.2164 34.9686 33.3156 34.142 34.1414C33.2888 34.9938 32.1677 35.4203 31.0481 35.4203C29.9277 35.4203 28.8074 34.9938 27.955 34.1414L27.0542 33.2406C26.1979 33.6977 25.3018 34.0695 24.3752 34.3508V35.625C24.3752 36.793 23.9197 37.8914 23.0939 38.718C22.4837 39.3281 21.7157 39.7414 20.8743 39.9125C20.8735 39.9125 20.8727 39.9133 20.8711 39.9133C20.5836 39.9703 20.2906 40 20 40ZM20.625 38.6875H20.6258H20.625ZM12.7403 30.4297C12.9677 30.4297 13.1966 30.4914 13.4005 30.6188C14.5639 31.343 15.828 31.8672 17.1577 32.1758C17.7241 32.307 18.1249 32.8117 18.1249 33.3937V35.625C18.1249 36.6586 18.9664 37.5 20 37.5C20.125 37.5 20.2516 37.4875 20.3766 37.4625C20.7352 37.3898 21.0633 37.2125 21.3258 36.9508C21.6805 36.5961 21.8751 36.1258 21.8751 35.625V33.393C21.8751 32.8117 22.2759 32.307 22.8423 32.175C24.172 31.8664 25.4361 31.343 26.5995 30.618C27.0925 30.3109 27.7331 30.3844 28.1441 30.7953L29.723 32.3742C30.4535 33.1047 31.6434 33.1047 32.3755 32.3742C32.7294 32.0203 32.9239 31.55 32.9239 31.0484C32.9239 30.5477 32.7294 30.0766 32.3755 29.7227L30.7965 28.1437C30.3856 27.7328 30.3121 27.0922 30.6192 26.5992C31.3434 25.4359 31.8676 24.1719 32.1763 22.8422C32.3075 22.2758 32.8122 21.875 33.3943 21.875H35.6264C36.66 21.875 37.5015 21.0336 37.5015 20C37.5015 19.4992 37.3061 19.0289 36.9522 18.6742C36.5975 18.3195 36.1272 18.1242 35.6264 18.1242H33.3943C32.813 18.1242 32.3083 17.7234 32.1763 17.157C31.8676 15.8273 31.3442 14.5633 30.6192 13.4C30.3121 12.9062 30.3856 12.2664 30.7965 11.8555L32.3755 10.2766C33.106 9.54609 33.106 8.35625 32.3755 7.62422C32.0216 7.27031 31.5512 7.07578 31.0497 7.07578C30.5489 7.07578 30.0777 7.27109 29.7238 7.62422L28.1448 9.20312C27.7339 9.61406 27.0932 9.6875 26.6003 9.38047C25.4369 8.65625 24.1728 8.13203 22.8431 7.82344C22.2767 7.69219 21.8759 7.1875 21.8759 6.60547V4.375C21.8759 3.48672 21.2454 2.71406 20.3766 2.5375C20.2539 2.5125 20.1266 2.5 20.0008 2.5C19.5 2.5 19.0297 2.69531 18.675 3.04922C18.3202 3.40391 18.1257 3.87422 18.1257 4.375V6.60703C18.1257 7.18828 17.7249 7.69297 17.1585 7.825C15.8287 8.13359 14.5646 8.65703 13.4013 9.38203C12.9083 9.68906 12.2677 9.61563 11.8567 9.20469L10.2777 7.62578C9.54725 6.89453 8.35736 6.89531 7.6253 7.62578C7.27138 7.97969 7.07684 8.45078 7.07684 8.95156C7.07684 9.45234 7.27138 9.92344 7.6253 10.2773L9.20427 11.8562C9.61522 12.2672 9.68866 12.9078 9.38161 13.4008C8.65737 14.5641 8.13313 15.8281 7.82453 17.1578C7.69327 17.7242 7.18857 18.125 6.60651 18.125H4.37439C3.34075 18.125 2.49932 18.9664 2.49932 20C2.49932 20.5008 2.69464 20.9711 3.04856 21.3258C3.40326 21.6805 3.87359 21.875 4.37439 21.875H6.60651C7.18779 21.875 7.69249 22.2758 7.82453 22.8422C8.13313 24.1719 8.65658 25.4359 9.38161 26.5992C9.68866 27.093 9.61522 27.7328 9.20427 28.1437L7.6253 29.7227C6.8948 30.4539 6.8948 31.643 7.6253 32.375C7.97922 32.7289 8.45034 32.9234 8.95114 32.9234C9.45194 32.9234 9.92305 32.7289 10.277 32.375L11.8559 30.7961C12.0973 30.5547 12.4169 30.4297 12.7403 30.4297Z" fill="#5789DB"/>
<path d="M19.9996 28.4931C15.3165 28.4931 11.5068 24.6834 11.5068 20C11.5068 15.3166 15.3165 11.5068 19.9996 11.5068C20.2407 11.5068 20.4804 11.5167 20.7116 11.5372C22.8235 11.7108 24.7866 12.6678 26.235 14.233C27.6909 15.8065 28.4931 17.8547 28.4931 20C28.4931 22.1453 27.6909 24.1935 26.235 25.767C24.7874 27.3314 22.8235 28.2891 20.7063 28.4628C20.4804 28.4825 20.2407 28.4931 19.9996 28.4931ZM19.9996 13.9335C16.6548 13.9335 13.9333 16.655 13.9333 20C13.9333 23.3449 16.6548 26.0665 19.9996 26.0665C20.171 26.0665 20.3393 26.0597 20.5008 26.0453C23.6242 25.7882 26.0659 23.1334 26.0659 20C26.0659 16.8666 23.6242 14.2118 20.5069 13.9554C20.3393 13.9403 20.171 13.9335 19.9996 13.9335Z" fill="#5789DB"/>
</svg>
