<svg width="48" height="60" viewBox="0 0 48 60" fill="none" xmlns="http://www.w3.org/2000/svg">
<path d="M46.0393 25.6864C44.7312 24.3112 42.9535 23.5465 41.0214 23.5465H40.8873C40.3439 23.5465 39.8206 23.6068 39.3041 23.7343C38.0027 21.97 35.9767 20.9168 33.716 20.9168C33.1391 20.9168 32.5689 20.9839 32.0121 21.118C30.7106 19.347 28.678 18.2804 26.4105 18.2804C26.33 18.2804 26.2563 18.2804 26.1758 18.2871V15.9459C26.1758 14.0541 25.4848 12.2361 24.237 10.8408C22.9021 9.34479 21.0975 8.52637 19.1521 8.52637C15.2545 8.52637 11.9607 11.9275 11.9607 15.9459V30.2884C10.6861 29.2956 9.06263 28.779 7.31174 28.826C5.39985 28.8729 3.60871 29.6042 2.39449 30.8184C1.15343 32.0594 0.301467 33.7701 0.066673 35.5008C-0.228496 37.6878 0.462468 39.754 2.01882 41.3103L2.02552 41.317L16.1132 55.3107C16.4687 55.6663 16.8779 55.9883 17.3274 56.27C20.1114 58.5106 23.4186 59.9999 30.3081 59.9999C37.5934 59.9999 42.457 58.0478 45.1806 54.0429C47.5085 50.6149 47.9848 46.241 47.9848 40.72V30.7043C47.9982 28.7991 47.3005 27.0147 46.0393 25.6864ZM43.7048 40.72C43.7048 45.4427 43.356 49.1055 41.6386 51.6278C40.4512 53.3787 37.9825 55.7065 30.3148 55.7065C24.5859 55.7065 22.097 54.6131 19.9369 52.8555C19.8564 52.7951 19.7759 52.7347 19.6887 52.681C19.4741 52.5536 19.2996 52.4127 19.1454 52.2651L5.06443 38.2647C3.54162 36.7352 4.66192 34.6287 5.4401 33.8506C5.86944 33.4212 6.63419 33.1395 7.43249 33.1194C8.27775 33.0992 9.04251 33.3676 9.53893 33.8573L12.6047 36.9096C13.2218 37.5201 14.1409 37.7012 14.9459 37.3725C15.7442 37.0371 16.2675 36.2589 16.2675 35.3868V15.9459C16.2675 14.309 17.6494 12.8197 19.1655 12.8197C20.8023 12.8197 21.8958 14.4365 21.8958 15.9459V18.3005C21.8757 18.428 21.8623 18.5554 21.8623 18.6896V30.0402C21.8623 31.2276 22.8216 32.1869 24.0089 32.1869C25.1963 32.1869 26.1556 31.2276 26.1556 30.0402V22.6341C26.263 22.5939 26.3569 22.5738 26.424 22.5738C27.5241 22.5738 28.4298 23.1842 28.8927 24.224V32.1668C28.8927 33.3541 29.852 34.3134 31.0393 34.3134C32.2267 34.3134 33.186 33.3541 33.186 32.1668V25.2571C33.3672 25.2236 33.5416 25.2034 33.7227 25.2034C34.8229 25.2034 35.7285 25.8139 36.1914 26.8537V34.3805C36.1914 35.5679 37.1507 36.5272 38.3381 36.5272C39.5255 36.5272 40.4848 35.5679 40.4848 34.3805V27.8734C40.6189 27.8533 40.7531 27.8398 40.894 27.8398H41.0281C41.974 27.8398 42.5845 28.2759 42.9266 28.6381C43.4297 29.1681 43.7048 29.8993 43.7048 30.7043V40.72Z" fill="black" fill-opacity="0.75"/>
<path d="M8.53923 14.8121C9.72662 14.8121 10.6859 13.8528 10.6859 12.6655C10.6859 8.05008 14.4426 4.29338 19.058 4.29338C23.6734 4.29338 27.4301 8.05008 27.4301 12.6655C27.4301 13.8528 28.3894 14.8121 29.5768 14.8121C30.7642 14.8121 31.7235 13.8528 31.7235 12.6655C31.7235 5.68201 26.0414 0 19.058 0C12.0746 0 6.39255 5.68201 6.39255 12.6655C6.39255 13.8528 7.35185 14.8121 8.53923 14.8121Z" fill="black" fill-opacity="0.75"/>
</svg>
