<svg xmlns="http://www.w3.org/2000/svg" viewBox="0 0 166.67 166.67"><defs><style>.cls-1{fill:#fff;}</style></defs><g id="图层_2" data-name="图层 2"><g id="图层_1-2" data-name="图层 1"><path class="cls-1" d="M83.33,166.67a83.34,83.34,0,1,1,83.34-83.34,83.33,83.33,0,0,1-83.34,83.34Zm0-12.5A70.84,70.84,0,1,0,12.5,83.33a70.84,70.84,0,0,0,70.83,70.84Zm1.61-51.89L69,85l-18.7,19.39a6.25,6.25,0,1,1-9-8.68L64.65,71.49a6.26,6.26,0,0,1,8.84-.16,3.45,3.45,0,0,1,.26.28l16,17.4,26.68-26.76a6.25,6.25,0,1,1,9,8.68l-.15.15L94,102.46a6.25,6.25,0,0,1-8.84,0l-.19-.21Z"/></g></g></svg>