<svg xmlns="http://www.w3.org/2000/svg" xmlns:xlink="http://www.w3.org/1999/xlink" viewBox="0 0 16.63 16.63"><defs><style>.cls-1{fill:url(#未命名的渐变_45);}.cls-2,.cls-3{opacity:0.8;}.cls-2{fill:url(#未命名的渐变_38);}.cls-3{fill:url(#未命名的渐变_38-2);}</style><linearGradient id="未命名的渐变_45" x1="5.32" y1="1.95" x2="14.72" y2="11.36" gradientUnits="userSpaceOnUse"><stop offset="0" stop-color="#7a6df3"/><stop offset="1" stop-color="#6e4dfe"/></linearGradient><linearGradient id="未命名的渐变_38" x1="4.49" y1="2.69" x2="13.89" y2="12.09" gradientUnits="userSpaceOnUse"><stop offset="0" stop-color="#c030ed"/><stop offset="0.34" stop-color="#bf2dec"/><stop offset="0.59" stop-color="#ba24e7"/><stop offset="0.82" stop-color="#b314e0"/><stop offset="1" stop-color="#aa00d7"/></linearGradient><linearGradient id="未命名的渐变_38-2" x1="0.99" y1="6.19" x2="10.39" y2="15.59" xlink:href="#未命名的渐变_38"/></defs><g id="图层_2" data-name="图层 2"><g id="图层_2-2" data-name="图层 2"><path class="cls-1" d="M14,11h-5a3,3,0,0,1-3.1-3.3V2.34C5.84,1,7,0,8.71,0a2.69,2.69,0,0,1,2.93,2.34v2c0,.62,0,.65.58.65H14a2.71,2.71,0,0,1,2.65,2.76C16.63,9.8,15.66,11,14,11ZM8.71,1c-.86,0-1.87.35-1.87,1.34V7.67A2,2,0,0,0,8.94,10h5c.4,0,1.65,0,1.65-2.19A1.74,1.74,0,0,0,14,6H12.22C10.64,6,10.64,5,10.64,4.37v-2C10.64,1.71,9.85,1,8.71,1Z"/><path class="cls-2" d="M7.69,6.66A2,2,0,0,1,9.79,9v.62h1V9a3,3,0,0,0-3.1-3.3H7.28v1Z"/><path class="cls-3" d="M9.79,14.29c0,1-1,1.34-1.87,1.34C6.78,15.63,6,14.92,6,14.29v-2c0-.58,0-1.65-1.57-1.65H2.65A1.73,1.73,0,0,1,1,8.85C1,6.66,2.24,6.66,2.65,6.66H5.39v-1H2.65C1,5.66,0,6.82,0,8.85a2.72,2.72,0,0,0,2.65,2.76H4.41c.57,0,.57,0,.57.65v2a2.7,2.7,0,0,0,2.94,2.34c1.69,0,2.87-1,2.87-2.34V11.37h-1Z"/></g></g></svg>