<?xml version="1.0" standalone="no"?><!DOCTYPE svg PUBLIC "-//W3C//DTD SVG 1.1//EN" "http://www.w3.org/Graphics/SVG/1.1/DTD/svg11.dtd"><svg t="1591773576856" class="icon" viewBox="0 0 1316 1024" version="1.1" xmlns="http://www.w3.org/2000/svg" p-id="3574" xmlns:xlink="http://www.w3.org/1999/xlink" width="257.03125" height="200"><defs><style type="text/css"></style></defs><path d="M1316.573623 330.166857v577.462857c0 31.963429-11.483429 59.392-34.523429 82.212572a113.956571 113.956571 0 0 1-83.017143 34.157714H117.542766c-32.329143 0-59.977143-11.410286-83.017143-34.157714A111.469714 111.469714 0 0 1 0.002194 907.629714V330.166857c21.577143 23.771429 46.299429 44.836571 74.24 63.268572C251.54048 512.731429 373.250194 596.333714 439.371337 644.388571c27.940571 20.333714 50.541714 36.278857 67.949714 47.616 17.408 11.410286 40.521143 23.04 69.412572 34.889143 28.891429 11.849143 55.808 17.846857 80.822857 17.846857h1.462857c25.014857 0 51.931429-5.924571 80.822857-17.846857 28.891429-11.849143 52.004571-23.478857 69.412572-34.889143 17.408-11.410286 40.009143-27.282286 67.949714-47.616 83.236571-59.611429 205.238857-143.286857 365.860571-250.88A405.942857 405.942857 0 0 0 1316.573623 330.166857z m0-213.796571c0 38.326857-11.995429 74.898286-35.986286 109.787428a348.452571 348.452571 0 0 1-89.6 89.453715c-184.173714 126.537143-298.788571 205.312-343.844571 236.397714a2669.714286 2669.714286 0 0 0-31.232 22.162286c-15.945143 11.410286-29.110857 20.626286-39.643429 27.648-10.532571 7.021714-23.259429 14.921143-38.180571 23.625142a228.937143 228.937143 0 0 1-42.349715 19.675429 119.076571 119.076571 0 0 1-36.717714 6.509714h-1.462857c-11.264 0-23.478857-2.194286-36.717714-6.509714a226.230857 226.230857 0 0 1-42.276572-19.675429 760.393143 760.393143 0 0 1-38.180571-23.625142 1514.642286 1514.642286 0 0 1-39.716572-27.648 2669.714286 2669.714286 0 0 0-31.232-22.162286 38094.774857 38094.774857 0 0 0-192.438857-132.754286 28503.478857 28503.478857 0 0 1-150.601143-103.643428C95.965623 295.277714 67.366766 267.264 40.377051 231.643429S0.002194 162.889143 0.002194 132.388571C0.002194 94.573714 10.169051 63.049143 30.502766 37.814857 50.83648 12.580571 79.874194 0 117.542766 0h1081.490285c31.817143 0 59.392 11.410286 82.651429 34.157714 23.259429 22.820571 34.889143 50.176 34.889143 82.212572z" p-id="3575"></path></svg>