<?xml version="1.0" standalone="no"?><!DOCTYPE svg PUBLIC "-//W3C//DTD SVG 1.1//EN" "http://www.w3.org/Graphics/SVG/1.1/DTD/svg11.dtd"><svg t="1590363679652" class="icon" viewBox="0 0 1024 1024" version="1.1" xmlns="http://www.w3.org/2000/svg" p-id="7116" xmlns:xlink="http://www.w3.org/1999/xlink" width="200" height="200"><defs><style type="text/css"></style></defs><path d="M93.252608 1024A67.959467 67.959467 0 0 1 25.600341 955.733333V68.266667a67.6352 67.6352 0 1 1 135.287467 0v887.466666a67.959467 67.959467 0 0 1-67.6352 68.266667z m135.2704-260.027733V55.176533a33.979733 33.979733 0 0 1 33.826133-34.133333 33.570133 33.570133 0 0 1 15.1552 3.618133L979.627008 379.016533a34.2528 34.2528 0 0 1 0 61.098667L277.487275 794.487467a33.672533 33.672533 0 0 1-45.380267-15.223467 34.4064 34.4064 0 0 1-3.584-15.291733z" p-id="7117"></path></svg>