<?xml version="1.0" standalone="no"?><!DOCTYPE svg PUBLIC "-//W3C//DTD SVG 1.1//EN" "http://www.w3.org/Graphics/SVG/1.1/DTD/svg11.dtd"><svg t="1590209998106" class="icon" viewBox="0 0 1024 1024" version="1.1" xmlns="http://www.w3.org/2000/svg" p-id="8234" xmlns:xlink="http://www.w3.org/1999/xlink" width="200" height="200"><defs><style type="text/css"></style></defs><path d="M149.362 896.636h213.406c23.572 0 42.681 19.11 42.681 42.682 0 23.573-19.109 42.682-42.681 42.682H128.022C92.663 982 64 953.336 64 917.977V107.023C64 71.664 92.663 43 128.022 43H853.6c35.358 0 64.021 28.664 64.021 64.023v277.432c0 23.572-19.109 42.681-42.68 42.681-23.573 0-42.682-19.109-42.682-42.681V128.364H149.362v768.272z m128.022-597.545h426.854c23.56 0 42.66 19.1 42.66 42.66v0.044c0 23.56-19.1 42.66-42.66 42.66H277.384c-23.56 0-42.66-19.1-42.66-42.66v-0.044c0-23.56 19.1-42.66 42.66-42.66z m0 170.727h298.81c23.561 0 42.66 19.1 42.66 42.66v0.044c0 23.56-19.099 42.66-42.66 42.66h-298.81c-23.56 0-42.66-19.1-42.66-42.66v-0.044c0-23.56 19.1-42.66 42.66-42.66z m645.113 228.026l-259.12 259.124a85.362 85.362 0 0 1-60.36 25.002h-60.36c-47.145 0-85.363-38.218-85.363-85.363v-60.361a85.364 85.364 0 0 1 25.002-60.362l259.12-259.124c50.004-50.005 131.077-50.005 181.081 0 50.004 50.005 50.004 131.079 0 181.084zM801.777 577.12l-259.12 259.125v60.36h60.36l259.12-259.123c16.668-16.669 16.668-43.693 0-60.362-16.668-16.668-43.692-16.668-60.36 0z" p-id="8235"></path></svg>