<?xml version="1.0" standalone="no"?><!DOCTYPE svg PUBLIC "-//W3C//DTD SVG 1.1//EN" "http://www.w3.org/Graphics/SVG/1.1/DTD/svg11.dtd"><svg t="1590294994100" class="icon" viewBox="0 0 1024 1024" version="1.1" xmlns="http://www.w3.org/2000/svg" p-id="4425" xmlns:xlink="http://www.w3.org/1999/xlink" width="200" height="200"><defs><style type="text/css"></style></defs><path d="M635.6 155.2c-32-23.8-74.5-31-113.7-19.3L290.5 239.1c-36.8 11.6-64.5 38.3-76 71.1-9.5-4.3-20-6.7-31.1-6.7h-42.1c-41.8 0-75.8 34-75.8 75.8v261.2c0 41.8 34 75.8 75.8 75.8h42.1c11.1 0 21.6-2.4 31.1-6.7 11.5 32.8 39.2 59.5 76 71.1l228.4 102 3 1.1c12.4 3.7 25.1 5.5 37.7 5.5 27.3 0 54.1-8.5 76-24.8 28.5-21.2 44.8-52.8 44.8-86.6v-536c0.1-33.9-16.3-65.5-44.8-86.7zM183.4 665.8h-42.1c-13.9 0-25.3-11.3-25.3-25.3V379.3c0-13.9 11.3-25.3 25.3-25.3h42.1c13.9 0 25.3 11.3 25.3 25.3v261.2c0 13.9-11.3 25.3-25.3 25.3z m446.5 112.1c0 18-8.7 34.3-24.5 46.1-18.9 14-44 18.4-67.5 11.9l-228.2-102-3-1.1c-28.4-8.5-47.4-31.6-47.4-57.5V344.5c0-25.9 19.1-49 47.4-57.5L538 183.9c23.5-6.6 48.6-2.2 67.5 11.9 15.8 11.7 24.5 28.1 24.5 46.1v536zM955.5 486.7H708.8c-1.7 0-3 1.3-3 3v44.5c0 1.7 1.3 3 3 3h246.7c1.7 0 3-1.3 3-3v-44.5c0-1.6-1.3-3-3-3zM728.9 313.8c1.2 1.2 3.1 1.2 4.2 0l174.5-174.5c1.2-1.2 1.2-3.1 0-4.2l-31.5-31.5c-1.2-1.2-3.1-1.2-4.2 0L697.4 278.1c-1.2 1.2-1.2 3.1 0 4.2l31.5 31.5zM733.2 710.2c-1.2-1.2-3.1-1.2-4.2 0l-31.5 31.5c-1.2 1.2-1.2 3.1 0 4.2L872 920.4c1.2 1.2 3.1 1.2 4.2 0l31.5-31.5c1.2-1.2 1.2-3.1 0-4.2L733.2 710.2z" p-id="4426"></path></svg>