<?xml version="1.0" standalone="no"?><!DOCTYPE svg PUBLIC "-//W3C//DTD SVG 1.1//EN" "http://www.w3.org/Graphics/SVG/1.1/DTD/svg11.dtd"><svg t="1590382427930" class="icon" viewBox="0 0 1024 1024" version="1.1" xmlns="http://www.w3.org/2000/svg" p-id="7997" xmlns:xlink="http://www.w3.org/1999/xlink" width="200" height="200"><defs><style type="text/css"></style></defs><path d="M107.719683 108.382697v807.89762h807.89762V492.295646a53.859841 53.859841 0 1 1 107.719682 0v427.000822C1023.336985 977.088078 976.478923 1024 918.633454 1024H104.703532A104.703532 104.703532 0 0 1 0 919.296468V105.366546C0 47.574936 46.858062 0.663015 104.703532 0.663015h449.621955a53.859841 53.859841 0 1 1 0 107.719682H107.719683z" p-id="7998"></path><path d="M415.097797 685.060018l592.458255-592.458254A53.859841 53.859841 0 1 0 931.398236 16.443948l-592.458254 592.458255a53.859841 53.859841 0 0 0 76.157815 76.157815z" p-id="7999"></path></svg>