<?xml version="1.0" standalone="no"?><!DOCTYPE svg PUBLIC "-//W3C//DTD SVG 1.1//EN" "http://www.w3.org/Graphics/SVG/1.1/DTD/svg11.dtd"><svg t="1591768993810" class="icon" viewBox="0 0 1046 1024" version="1.1" xmlns="http://www.w3.org/2000/svg" p-id="7617" xmlns:xlink="http://www.w3.org/1999/xlink" width="204.296875" height="200"><defs><style type="text/css"></style></defs><path d="M1033.2868 677.793395L522.890791 355.278859c-18.389704-11.626379-30.649506 0-26.930699 20.198024l108.938561 623.002295c3.667724 22.639769 17.133074 25.704719 29.985434 6.732675A1871.458845 1871.458845 0 0 1 760.955722 835.709867l108.928345 172.55672A32.437394 32.437394 0 0 0 914.376933 1019.361708q1.02165-0.61299 2.0433-1.307712l36.718109-26.9307a37.944089 37.944089 0 0 0 8.551212-50.183458L852.750993 768.975676a1439.392757 1439.392757 0 0 1 176.255093-61.196847c20.800798-4.280714 23.293625-18.359054 4.280714-29.985434z" fill="#040000" p-id="7618"></path><path d="M874.675606 0a133.294702 133.294702 0 0 1 133.294702 133.294702v124.406346a50.489953 50.489953 0 0 1-100.979906 0V133.294702a32.314796 32.314796 0 0 0-32.314796-32.314796H133.294702a32.314796 32.314796 0 0 0-32.314796 32.314796v735.251003a32.314796 32.314796 0 0 0 32.314796 32.314796h137.698015a50.489953 50.489953 0 0 1 0 100.979906H133.294702A133.294702 133.294702 0 0 1 0 868.545705V133.294702A133.294702 133.294702 0 0 1 133.294702 0z" fill="#040000" p-id="7619"></path></svg>