<?xml version="1.0" standalone="no"?><!DOCTYPE svg PUBLIC "-//W3C//DTD SVG 1.1//EN" "http://www.w3.org/Graphics/SVG/1.1/DTD/svg11.dtd"><svg t="1590297403445" class="icon" viewBox="0 0 1024 1024" version="1.1" xmlns="http://www.w3.org/2000/svg" p-id="12907" xmlns:xlink="http://www.w3.org/1999/xlink" width="200" height="200"><defs><style type="text/css"></style></defs><path d="M34.194417 385.869008c33.580224 0 33.580224-33.586266 33.580224-33.586266L67.774641 151.250462c0-37.341902 30.224316-67.638713 67.638713-67.638713l201.033288 0c0 0 33.586266 0 33.586266-33.580224 0-33.586266-33.586266-33.586266-33.586266-33.586266L135.345894 16.445258c-74.489478 0-134.737743 60.315726-134.737743 134.737743l0 201.099741C0.608151 352.282743 0.608151 385.869008 34.194417 385.869008L34.194417 385.869008zM34.194417 385.869008" p-id="12908"></path><path d="M133.327114 520.201988c0 22.057569 18.468066 39.957759 41.221384 39.957759l659.629746 0c22.753318 0 41.221384-17.90019 41.221384-39.957759 0-22.057569-18.468066-39.957759-41.221384-39.957759L174.549505 480.24423C151.79518 480.24423 133.327114 498.143413 133.327114 520.201988L133.327114 520.201988zM133.327114 520.201988" p-id="12909"></path><path d="M873.382862 16.445258 672.28312 16.445258c0 0-33.586266 0-33.586266 33.586266 0 33.580224 33.586266 33.580224 33.586266 33.580224l201.032281 0c37.414397 0 67.638713 30.295804 67.638713 67.638713l0 201.033288c0 0 0 33.586266 33.580224 33.586266 33.586266 0 33.586266-33.586266 33.586266-33.586266L1008.120605 151.183001C1008.120605 76.760984 947.871333 16.445258 873.382862 16.445258L873.382862 16.445258zM873.382862 16.445258" p-id="12910"></path><path d="M336.445636 956.791221 135.412348 956.791221c-37.414397 0-67.638713-30.295804-67.638713-67.638713l0-201.032281c0 0 0-33.586266-33.580224-33.586266-33.586266 0-33.586266 33.586266-33.586266 33.586266l0 201.099741c0 74.422017 60.248265 134.737743 134.737743 134.737743l201.099741 0c0 0 33.586266 0 33.586266-33.586266C370.031901 956.791221 336.445636 956.791221 336.445636 956.791221L336.445636 956.791221zM336.445636 956.791221" p-id="12911"></path><path d="M974.534339 654.533961c-33.580224 0-33.580224 33.586266-33.580224 33.586266l0 201.032281c0 37.341902-30.224316 67.638713-67.638713 67.638713l-201.032281 0c0 0-33.586266 0-33.586266 33.580224 0 33.586266 33.586266 33.586266 33.586266 33.586266l201.099741 0c74.488471 0 134.737743-60.315726 134.737743-134.737743L1008.120605 688.120227C1008.120605 688.120227 1008.120605 654.533961 974.534339 654.533961L974.534339 654.533961zM974.534339 654.533961" p-id="12912"></path></svg>