<?xml version="1.0" standalone="no"?><!DOCTYPE svg PUBLIC "-//W3C//DTD SVG 1.1//EN" "http://www.w3.org/Graphics/SVG/1.1/DTD/svg11.dtd"><svg t="1590349105243" class="icon" viewBox="0 0 1024 1024" version="1.1" xmlns="http://www.w3.org/2000/svg" p-id="3256" xmlns:xlink="http://www.w3.org/1999/xlink" width="200" height="200"><defs><style type="text/css"></style></defs><path d="M511.492754 0.987429A509.366857 509.366857 0 0 0 0.004754 512.512C0.004754 796.672 227.332754 1024 511.492754 1024c284.16 0 511.524571-227.328 511.524572-511.488 0-28.416-18.944-47.36-47.36-47.36-28.416 0-47.36 18.944-47.36 47.36 0 227.328-189.44 416.768-416.804572 416.768-227.328 0-416.768-189.44-416.768-416.768 0-227.328 189.44-416.804571 416.768-416.804571 75.776 0 161.024 18.944 217.892572 66.304v9.508571l-47.36 56.795429c-18.944 18.944 0 56.868571 28.416 56.868571l217.856 9.472c18.944 0 37.888-28.452571 37.888-47.396571l-66.304-208.384C890.372754 10.459429 852.484754 0.987429 833.577326 29.403429l-37.888 56.832C710.441326 29.403429 615.684754 1.024 511.529326 1.024z" p-id="3257"></path></svg>