<svg xmlns="http://www.w3.org/2000/svg" xmlns:xlink="http://www.w3.org/1999/xlink" viewBox="0 0 690.42 318.3"><defs><style>.cls-1{opacity:0.75;}.cls-2{font-size:20px;font-family:SFProText-Regular, SF Pro Text;}.cls-3{letter-spacing:-0.01em;}.cls-4,.cls-7,.cls-8{fill:none;stroke-miterlimit:10;}.cls-4{stroke:#000;stroke-width:0.5px;opacity:0.25;}.cls-5,.cls-6{opacity:0.5;}.cls-5{fill:url(#未命名的渐变_12);}.cls-6{fill:url(#未命名的渐变_9);}.cls-7{stroke:#5789db;}.cls-7,.cls-8{stroke-linecap:round;stroke-width:3px;}.cls-8{stroke:#b957db;}.cls-9{letter-spacing:-0.07em;}.cls-10{letter-spacing:-0.05em;}</style><linearGradient id="未命名的渐变_12" x1="375.45" y1="269.35" x2="375.45" y2="180.85" gradientUnits="userSpaceOnUse"><stop offset="0" stop-color="#fff" stop-opacity="0"/><stop offset="0.07" stop-color="#f5e6fa" stop-opacity="0.15"/><stop offset="0.2" stop-color="#e5c0f2" stop-opacity="0.37"/><stop offset="0.33" stop-color="#d7a0eb" stop-opacity="0.56"/><stop offset="0.46" stop-color="#cc86e5" stop-opacity="0.72"/><stop offset="0.59" stop-color="#c471e1" stop-opacity="0.84"/><stop offset="0.72" stop-color="#be63dd" stop-opacity="0.93"/><stop offset="0.85" stop-color="#ba5adc" stop-opacity="0.98"/><stop offset="1" stop-color="#b957db"/></linearGradient><linearGradient id="未命名的渐变_9" x1="375.81" y1="121.35" x2="375.81" y2="37.58" gradientUnits="userSpaceOnUse"><stop offset="0" stop-color="#fff" stop-opacity="0"/><stop offset="0.06" stop-color="#eaf0fa" stop-opacity="0.13"/><stop offset="0.19" stop-color="#c3d5f2" stop-opacity="0.35"/><stop offset="0.32" stop-color="#a2beeb" stop-opacity="0.55"/><stop offset="0.46" stop-color="#87abe5" stop-opacity="0.71"/><stop offset="0.59" stop-color="#729ce1" stop-opacity="0.84"/><stop offset="0.72" stop-color="#6391de" stop-opacity="0.93"/><stop offset="0.86" stop-color="#5a8bdc" stop-opacity="0.98"/><stop offset="1" stop-color="#5789db"/></linearGradient></defs><g id="图层_2" data-name="图层 2"><g id="图层_2-2" data-name="图层 2"><g class="cls-1"><text class="cls-2" transform="translate(0.7 17.89)">120</text></g><g class="cls-1"><text class="cls-2" transform="translate(4.41 69.76)">110</text></g><g class="cls-1"><text class="cls-2" transform="translate(0 121.63)">100</text></g><g class="cls-1"><text class="cls-2" transform="translate(12.36 173.5)">90</text></g><g class="cls-1"><text class="cls-2" transform="translate(12.32 225.37)">80</text></g><g class="cls-1"><text class="cls-2" transform="translate(14.57 277.24)"><tspan class="cls-3">7</tspan><tspan x="11.1" y="0">0</tspan></text></g><line class="cls-4" x1="72.43" y1="9.04" x2="679.49" y2="9.04"/><line class="cls-4" x1="72.43" y1="165.91" x2="679.49" y2="165.91"/><line class="cls-4" x1="72.43" y1="61.33" x2="679.49" y2="61.33"/><line class="cls-4" x1="72.43" y1="113.62" x2="679.49" y2="113.62"/><line class="cls-4" x1="72.43" y1="218.2" x2="679.49" y2="218.2"/><line class="cls-4" x1="72.43" y1="270.49" x2="679.49" y2="270.49"/><path class="cls-5" d="M679.13,191.93s-83.36-9.09-101.53-9.09-71.83,56.69-101.17,56.69-76.66-58.68-100.83-58.68-72.83,33.81-101.5,33.81-73.33-12.93-101.17-12.93-101.16,6-101.16,6v61.65H679.13Z"/><path class="cls-6" d="M72.43,121.35h-.3V77.18s73.33-39.6,101.16-39.6,72.5,36.88,101.17,36.88S351.79,37.58,376,37.58,447.46,96,476.79,96s83-46.91,101.17-46.91S679.49,69.43,679.49,69.43L679.13,121"/><path class="cls-7" d="M72.13,77.18s73.33-39.6,101.16-39.6,72.5,36.88,101.17,36.88S351.79,37.58,376,37.58,447.46,96,476.79,96s83-46.91,101.17-46.91S679.49,69.43,679.49,69.43"/><path class="cls-8" d="M71.77,207.85s73.33-6,101.16-6,72.5,13,101.17,13,77.33-34,101.5-34,71.5,59,100.83,59,83-57,101.17-57S679.13,192,679.13,192"/><text class="cls-2" transform="translate(161.44 312.71)">Sun</text><text class="cls-2" transform="translate(60.44 312.71)">Sat</text><text class="cls-2" transform="translate(262.44 312.71)">Mon</text><text class="cls-2" transform="translate(363.44 312.71)"><tspan class="cls-9">T</tspan><tspan x="11.21" y="0">ue</tspan></text><text class="cls-2" transform="translate(464.44 312.71)"><tspan class="cls-10">W</tspan><tspan x="18.38" y="0">ed</tspan></text><text class="cls-2" transform="translate(565.44 312.71)">Thu</text><text class="cls-2" transform="translate(666.44 312.71)">Fri</text></g></g></svg>