<?xml version="1.0" standalone="no"?><!DOCTYPE svg PUBLIC "-//W3C//DTD SVG 1.1//EN" "http://www.w3.org/Graphics/SVG/1.1/DTD/svg11.dtd"><svg t="1590304993750" class="icon" viewBox="0 0 1024 1024" version="1.1" xmlns="http://www.w3.org/2000/svg" p-id="13699" xmlns:xlink="http://www.w3.org/1999/xlink" width="200" height="200"><defs><style type="text/css"></style></defs><path d="M188.49 259.44l305.48 268.6c10.31 9.07 25.75 9.07 36.06 0l305.48-268.6c18.92-16.63 7.16-47.81-18.02-47.81H206.52c-25.17 0-36.94 31.18-18.03 47.81z" p-id="13700"></path><path d="M876.26 296.33l-328.2 288.58c-20.63 18.14-51.51 18.14-72.13 0L147.74 296.33c-17.64-15.53-45.34-2.99-45.34 20.5v440.92c0 30.16 24.45 54.61 54.61 54.61h709.97c30.16 0 54.61-24.45 54.61-54.61V316.84c0.01-23.5-27.69-36.02-45.33-20.51z" p-id="13701"></path></svg>