<svg width="20" height="20" viewBox="0 0 20 20" fill="none" xmlns="http://www.w3.org/2000/svg">
<path d="M7.56244 0H1.37506C0.615635 0 0 0.615635 0 1.37506V7.56244C0 8.32187 0.615635 8.9375 1.37506 8.9375H7.56244C8.32187 8.9375 8.9375 8.32187 8.9375 7.56244V1.37506C8.9375 0.615635 8.32187 0 7.56244 0ZM7.5625 7.5625H1.375V1.375H7.5625V7.5625Z" fill="white"/>
<path d="M7.56244 10.3125H1.37506C0.615635 10.3125 0 10.9281 0 11.6876V17.8749C0 18.6344 0.615635 19.25 1.37506 19.25H7.56244C8.32187 19.25 8.9375 18.6344 8.9375 17.8749V11.6876C8.9375 10.9281 8.32187 10.3125 7.56244 10.3125ZM7.5625 17.875H1.375V11.6875H7.5625V17.875Z" fill="white"/>
<path d="M17.8749 0H11.6876C10.9281 0 10.3125 0.615635 10.3125 1.37506V7.56244C10.3125 8.32187 10.9281 8.9375 11.6876 8.9375H17.8749C18.6344 8.9375 19.25 8.32187 19.25 7.56244V1.37506C19.25 0.615635 18.6344 0 17.8749 0ZM17.875 7.5625H11.6875V1.375H17.875V7.5625Z" fill="white"/>
<path d="M17.8749 10.3125H11.6876C10.9281 10.3125 10.3125 10.9281 10.3125 11.6876V17.8749C10.3125 18.6344 10.9281 19.25 11.6876 19.25H17.8749C18.6344 19.25 19.25 18.6344 19.25 17.8749V11.6876C19.25 10.9281 18.6344 10.3125 17.8749 10.3125ZM17.875 17.875H11.6875V11.6875H17.875V17.875Z" fill="white"/>
</svg>
