<?xml version="1.0" standalone="no"?><!DOCTYPE svg PUBLIC "-//W3C//DTD SVG 1.1//EN" "http://www.w3.org/Graphics/SVG/1.1/DTD/svg11.dtd"><svg t="1592064841904" class="icon" viewBox="0 0 1024 1024" version="1.1" xmlns="http://www.w3.org/2000/svg" p-id="2708" xmlns:xlink="http://www.w3.org/1999/xlink" width="200" height="200"><defs><style type="text/css"></style></defs><path d="M415.997 64 128.003 64C92.655 64 64 92.655 64 128.003l0 287.994C64 451.345 92.655 480 128.003 480l287.994 0C451.345 480 480 451.345 480 415.997L480 128.003C480 92.655 451.345 64 415.997 64zM416 416 128 416 128 128l288 0L416 416z" p-id="2709"></path><path d="M415.997 544 128.003 544C92.655 544 64 572.655 64 608.003l0 287.994C64 931.345 92.655 960 128.003 960l287.994 0C451.345 960 480 931.345 480 895.997L480 608.003C480 572.655 451.345 544 415.997 544zM416 896 128 896 128 608l288 0L416 896z" p-id="2710"></path><path d="M895.997 64 608.003 64C572.654 64 544 92.655 544 128.003l0 287.994C544 451.345 572.655 480 608.003 480l287.994 0C931.346 480 960 451.345 960 415.997L960 128.003C960 92.655 931.345 64 895.997 64zM896 416 608 416 608 128l288 0L896 416z" p-id="2711"></path><path d="M895.997 544 608.003 544C572.654 544 544 572.655 544 608.003l0 287.994C544 931.345 572.655 960 608.003 960l287.994 0C931.346 960 960 931.345 960 895.997L960 608.003C960 572.655 931.345 544 895.997 544zM896 896 608 896 608 608l288 0L896 896z" p-id="2712"></path></svg>