<svg xmlns="http://www.w3.org/2000/svg" xmlns:xlink="http://www.w3.org/1999/xlink" viewBox="0 0 16.65 16.63"><defs><style>.cls-1{fill:url(#未命名的渐变);}.cls-2,.cls-3{opacity:0.8;isolation:isolate;}.cls-2{fill:url(#未命名的渐变_3);}.cls-3{fill:url(#未命名的渐变_3-2);}</style><linearGradient id="未命名的渐变" x1="5.32" y1="16.06" x2="14.72" y2="6.66" gradientTransform="matrix(1, 0, 0, -1, 0, 18.03)" gradientUnits="userSpaceOnUse"><stop offset="0" stop-color="#7a6df3"/><stop offset="1" stop-color="#6e4dfe"/></linearGradient><linearGradient id="未命名的渐变_3" x1="4.47" y1="15.3" x2="13.87" y2="5.9" gradientTransform="matrix(1, 0, 0, -1, 0, 18.03)" gradientUnits="userSpaceOnUse"><stop offset="0" stop-color="#c030ed"/><stop offset="0.34" stop-color="#bf2dec"/><stop offset="0.59" stop-color="#ba24e7"/><stop offset="0.82" stop-color="#b314e0"/><stop offset="1" stop-color="#aa00d7"/></linearGradient><linearGradient id="未命名的渐变_3-2" x1="1.01" y1="11.83" x2="10.41" y2="2.43" xlink:href="#未命名的渐变_3"/></defs><g id="图层_2" data-name="图层 2"><g id="图层_1-2" data-name="图层 1"><g id="图层_2-2" data-name="图层 2"><g id="图层_2-2-2" data-name="图层 2-2"><path class="cls-1" d="M14,11H9A3,3,0,0,1,5.89,8.13a3,3,0,0,1,0-.42V2.35C5.84,1,7,0,8.71,0a2.69,2.69,0,0,1,2.93,2.34v2c0,.62,0,.65.58.65H14a2.72,2.72,0,0,1,2.65,2.76C16.63,9.81,15.66,11,14,11ZM8.71,1c-.86,0-1.87.35-1.87,1.34V7.68A2,2,0,0,0,8.48,10a2.36,2.36,0,0,0,.46,0h5c.4,0,1.65,0,1.65-2.19A1.74,1.74,0,0,0,14,6H12.22c-1.58,0-1.58-1-1.58-1.63v-2C10.64,1.72,9.85,1,8.71,1Z"/><path class="cls-2" d="M7.69,6.67A2,2,0,0,1,9.82,8.54a1.83,1.83,0,0,1,0,.47v.62h1V9A3,3,0,0,0,8.11,5.73a3,3,0,0,0-.42,0H7.28v1Z"/><path class="cls-3" d="M9.79,14.3c0,1-1,1.34-1.87,1.34C6.78,15.64,6,14.93,6,14.3v-2c0-.58,0-1.65-1.57-1.65H2.65A1.73,1.73,0,0,1,1,8.86C1,6.67,2.24,6.67,2.65,6.67H5.39v-1H2.65C1,5.67,0,6.83,0,8.86a2.72,2.72,0,0,0,2.65,2.76H4.41c.57,0,.57,0,.57.65v2a2.7,2.7,0,0,0,2.94,2.34c1.69,0,2.87-1,2.87-2.34V11.38h-1Z"/></g></g></g></g></svg>