<svg xmlns="http://www.w3.org/2000/svg" viewBox="0 0 186.67 200"><defs><style>.cls-1{fill:#5789db;}</style></defs><g id="图层_2" data-name="图层 2"><g id="图层_1-2" data-name="图层 1"><path class="cls-1" d="M116.61,200a7.73,7.73,0,0,1-7.76-7.68h0V76.93a7.72,7.72,0,0,1,2-5.16l50.6-56.37H25.05l50.7,56.41a7.69,7.69,0,0,1,2,5.12v69.43L90,156.25a7.63,7.63,0,0,1,1.15,10.8,7.8,7.8,0,0,1-10.91,1.15L65.08,156a7.64,7.64,0,0,1-2.88-6V79.85L2,12.8A7.65,7.65,0,0,1,.68,4.53,7.77,7.77,0,0,1,7.73,0h171.2A7.74,7.74,0,0,1,186,4.57a7.64,7.64,0,0,1-1.33,8.27l-60.32,67V192.31a7.71,7.71,0,0,1-7.75,7.69Z"/></g></g></svg>