<svg xmlns="http://www.w3.org/2000/svg" viewBox="0 0 157.3 127.9"><defs><style>.cls-1{fill:#fff;}</style></defs><g id="图层_2" data-name="图层 2"><g id="图层_1-2" data-name="图层 1"><path class="cls-1" d="M152.88,32.56,129.82,6.14A17.59,17.59,0,0,0,116.44,0H40.83A17.7,17.7,0,0,0,27.35,6.13l-23,26.43A17.87,17.87,0,0,0,4.72,56.4l60.63,65.72a17.87,17.87,0,0,0,13.13,5.78,17.66,17.66,0,0,0,13-5.79l61-65.71A17.76,17.76,0,0,0,152.88,32.56Zm-74.4,84.18a6.47,6.47,0,0,1-4.92-2.17L12.94,48.84a6.64,6.64,0,0,1-.17-8.91l23-26.42a6.64,6.64,0,0,1,5-2.24h75.72a6.66,6.66,0,0,1,5,2.24L144.7,39.93a6.65,6.65,0,0,1-.17,8.91L83.41,114.55A6.75,6.75,0,0,1,78.48,116.74Z"/><path class="cls-1" d="M115.62,40.51,77.79,77.44l-35.9-36.8a5.62,5.62,0,0,0-8.06,7.83L73.64,89.29a5.72,5.72,0,0,0,4,1.67,5.92,5.92,0,0,0,3.91-1.55l41.85-40.83a5.61,5.61,0,0,0-7.8-8.07Z"/></g></g></svg>