<svg width="24" height="18" viewBox="0 0 24 18" fill="none" xmlns="http://www.w3.org/2000/svg">
<path d="M11.7805 17.1707L22.561 6.39025L18.122 1H5.43902L1 6.39025L11.7805 17.1707Z" stroke="white" stroke-width="1.5" stroke-linejoin="round"/>
<path d="M17.3842 7.23761C17.6771 6.94471 17.6771 6.46984 17.3842 6.17695C17.0913 5.88405 16.6164 5.88405 16.3235 6.17695L17.3842 7.23761ZM11.7807 11.7804L11.2504 12.3108C11.5433 12.6037 12.0181 12.6037 12.311 12.3108L11.7807 11.7804ZM7.23785 6.17695C6.94496 5.88405 6.47008 5.88405 6.17719 6.17695C5.8843 6.46984 5.8843 6.94471 6.17719 7.23761L7.23785 6.17695ZM16.3235 6.17695L11.2504 11.2501L12.311 12.3108L17.3842 7.23761L16.3235 6.17695ZM12.311 11.2501L7.23785 6.17695L6.17719 7.23761L11.2504 12.3108L12.311 11.2501Z" fill="white"/>
</svg>
