<svg width="20" height="20" viewBox="0 0 20 20" fill="none" xmlns="http://www.w3.org/2000/svg">
<g clip-path="url(#clip0)">
<path d="M1.32 20C0.968998 19.9974 0.633271 19.8561 0.386006 19.6069C0.138741 19.3578 -9.92137e-06 19.021 5.3209e-10 18.67H5.3209e-10V1.32C5.3209e-10 0.969914 0.139071 0.634167 0.386619 0.386619C0.634167 0.139071 0.969914 0 1.32 0C1.67009 0 2.00583 0.139071 2.25338 0.386619C2.50093 0.634167 2.64 0.969914 2.64 1.32V18.67C2.64267 18.8446 2.61043 19.0179 2.54516 19.1798C2.4799 19.3417 2.38293 19.4889 2.25995 19.6128C2.13698 19.7368 1.99048 19.8348 1.82906 19.9013C1.66764 19.9678 1.49457 20.0014 1.32 20Z" fill="#5789DB" fill-opacity="0.2"/>
<path d="M4.00006 14.92V1.07001C3.99728 0.898318 4.06152 0.732306 4.17915 0.607211C4.29678 0.482116 4.45853 0.407789 4.63006 0.400006C4.73113 0.398111 4.83099 0.422215 4.92006 0.470006L18.6401 7.39001C18.7189 7.42932 18.7893 7.48381 18.847 7.55034C18.9048 7.61688 18.9489 7.69417 18.9768 7.77777C19.0046 7.86137 19.0157 7.94965 19.0094 8.03754C19.0031 8.12544 18.9796 8.21123 18.9401 8.29001C18.8725 8.41787 18.7679 8.52241 18.6401 8.59001L4.92006 15.51C4.84206 15.5576 4.75476 15.588 4.66404 15.5991C4.57333 15.6101 4.48129 15.6017 4.39413 15.5742C4.30696 15.5467 4.22669 15.5009 4.15872 15.4398C4.09075 15.3787 4.03665 15.3038 4.00006 15.22C3.97703 15.1213 3.97703 15.0187 4.00006 14.92Z" fill="#5789DB" fill-opacity="0.2"/>
</g>
<defs>
<clipPath id="clip0">
<rect width="19.01" height="20" fill="white"/>
</clipPath>
</defs>
</svg>
