<svg xmlns="http://www.w3.org/2000/svg" viewBox="0 0 20 20"><defs><style>.cls-1{fill:#fff;}</style></defs><g id="图层_2" data-name="图层 2"><g id="图层_1-2" data-name="图层 1"><path class="cls-1" d="M9.8,20C3.2,20,0,18.68,0,16c0-1.9,3.33-3.15,6.69-3.59v-.16c-2.51-1.64-2.84-4.57-2.84-7C3.85,2,6.11,0,9.9,0h.2c3.79,0,6.06,2,6.06,5.24,0,2.41-.34,5.34-2.85,7v.16C16.67,12.82,20,14.06,20,16s-1.77,4-10.2,4ZM9.9,1.59c-2.78,0-4.19,1.23-4.19,3.65,0,2.27.28,4.74,2.41,5.9a.78.78,0,0,1,.44.67v1.27a.85.85,0,0,1-.84.79c-3.52.32-5.86,1.48-5.86,2.1,0,1.62,2.67,2.44,7.94,2.44s8.34-.89,8.34-2.44c0-.62-2.34-1.78-5.86-2.1a.85.85,0,0,1-.83-.79V11.81a.77.77,0,0,1,.43-.67C14,10,14.3,7.51,14.3,5.24c0-2.42-1.42-3.65-4.2-3.65Z"/></g></g></svg>