<svg xmlns="http://www.w3.org/2000/svg" viewBox="0 0 175 183.4"><defs><style>.cls-1{fill:#fff;}</style></defs><g id="图层_2" data-name="图层 2"><g id="图层_1-2" data-name="图层 1"><path class="cls-1" d="M16.67,166.73H58.35a8.34,8.34,0,1,1,0,16.67H12.5A12.51,12.51,0,0,1,0,170.89V12.5A12.5,12.5,0,0,1,12.5,0H154.22a12.5,12.5,0,0,1,12.5,12.5V66.69a8.34,8.34,0,1,1-16.67,0v-50H16.67ZM41.68,50h83.37a8.33,8.33,0,0,1,8.33,8.33h0a8.33,8.33,0,0,1-8.33,8.33H41.68a8.34,8.34,0,0,1-8.34-8.33h0A8.34,8.34,0,0,1,41.68,50Zm0,33.34H100a8.33,8.33,0,0,1,8.33,8.33h0A8.33,8.33,0,0,1,100,100H41.68a8.33,8.33,0,0,1-8.34-8.34h0A8.33,8.33,0,0,1,41.68,83.36Zm126,44.54-50.61,50.61a16.67,16.67,0,0,1-11.79,4.88H93.49a16.67,16.67,0,0,1-16.67-16.67V154.93a16.67,16.67,0,0,1,4.88-11.79l50.61-50.61a25,25,0,0,1,35.37,35.37ZM144.1,104.32,93.49,154.93v11.79h11.79l50.61-50.61a8.34,8.34,0,1,0-11.79-11.79Z"/></g></g></svg>