<svg xmlns="http://www.w3.org/2000/svg" viewBox="0 0 199.81 199.81"><defs><style>.cls-1{fill:#5789db;}</style></defs><g id="图层_2" data-name="图层 2"><g id="图层_1-2" data-name="图层 1"><path class="cls-1" d="M99.9,0A99.49,99.49,0,0,0,0,99.07v.84a99.91,99.91,0,0,0,199.81,0c0-5.55-3.7-9.25-9.25-9.25s-9.25,3.7-9.25,9.25c0,44.4-37,81.4-81.41,81.4s-81.4-37-81.4-81.4S55.5,18.5,99.9,18.5c14.8,0,31.45,3.7,42.56,13v1.86L133.21,44.4c-3.7,3.7,0,11.11,5.55,11.11l42.55,1.85c3.7,0,7.4-5.56,7.4-9.26l-13-40.7C173.9,1.85,166.5,0,162.81,5.55l-7.4,11.1A97.9,97.9,0,0,0,99.91,0Z"/></g></g></svg>