<svg width="12" height="12" viewBox="0 0 12 12" fill="none" xmlns="http://www.w3.org/2000/svg">
<path fill-rule="evenodd" clip-rule="evenodd" d="M7.90716 7.45047H8.41531L11.625 10.6666L10.6666 11.625L7.45047 8.41531V7.90716L7.2768 7.72706C6.54352 8.35742 5.59155 8.73692 4.55596 8.73692C2.24678 8.73692 0.375 6.86514 0.375 4.55596C0.375 2.24678 2.24678 0.375 4.55596 0.375C6.86514 0.375 8.73692 2.24678 8.73692 4.55596C8.73692 5.59155 8.35742 6.54352 7.72706 7.2768L7.90716 7.45047ZM1.66141 4.55627C1.66141 6.15789 2.95429 7.45078 4.55592 7.45078C6.15755 7.45078 7.45043 6.15789 7.45043 4.55627C7.45043 2.95464 6.15755 1.66175 4.55592 1.66175C2.95429 1.66175 1.66141 2.95464 1.66141 4.55627Z" fill="#5789DB"/>
</svg>
