<svg xmlns="http://www.w3.org/2000/svg" viewBox="0 0 200.1 200"><defs><style>.cls-1{fill:#fff;}</style></defs><g id="图层_2" data-name="图层 2"><g id="图层_1-2" data-name="图层 1"><path class="cls-1" d="M100.05,137.5c-21.25,0-37.5-16.25-37.5-37.5s16.25-37.5,37.5-37.5,37.5,16.25,37.5,37.5S121.3,137.5,100.05,137.5Zm0-62.5a25,25,0,1,0,25,25A25.07,25.07,0,0,0,100.05,75Zm25,125h-50a5.9,5.9,0,0,1-6.25-6.25V170a136.35,136.35,0,0,1-13.75-7.5l-20,12.5a6.59,6.59,0,0,1-8.75-2.5l-25-43.75C-1.2,125,.05,121.25,3.8,120l20-12.5v-15L3.8,80c-3.75-1.25-5-5-2.5-8.75l25-43.75c1.25-2.5,5-3.75,8.75-1.25l20,12.5c3.75-2.5,8.75-6.25,13.75-7.5v-25A5.9,5.9,0,0,1,75.05,0h50a5.9,5.9,0,0,1,6.25,6.25V30a136.35,136.35,0,0,1,13.75,7.5l20-12.5a6.59,6.59,0,0,1,8.75,2.5l25,43.75c2.5,3.75,1.25,7.5-2.5,8.75l-20,12.5v15l20,12.5c2.5,1.25,3.75,5,2.5,8.75l-25,43.75c-1.25,2.5-5,3.75-8.75,2.5l-20-12.5c-3.75,2.5-8.75,6.25-13.75,7.5v23.75A5.9,5.9,0,0,1,125.05,200ZM81.3,187.5h37.5V166.25a6.87,6.87,0,0,1,3.75-6.25,79.7,79.7,0,0,0,17.5-10,8,8,0,0,1,7.5,0l18.75,11.25,18.75-32.5L166.3,117.5c-2.5-2.5-3.75-5-2.5-7.5,0-3.75,1.25-6.25,1.25-10s0-6.25-1.25-10a9.55,9.55,0,0,1,2.5-6.25L185.05,72.5,166.3,40,147.55,51.25a8,8,0,0,1-7.5,0,79.7,79.7,0,0,0-17.5-10q-3.75-3.75-3.75-7.5V12.5H81.3V33.75A6.87,6.87,0,0,1,77.55,40a79.7,79.7,0,0,0-17.5,10,8,8,0,0,1-7.5,0L33.8,40,15.05,72.5,33.8,83.75C36.3,85,37.55,87.5,36.3,90c0,3.75-1.25,6.25-1.25,10s0,6.25,1.25,10c1.25,2.5,0,5-2.5,6.25L15.05,127.5,33.8,160l18.75-11.25a8,8,0,0,1,7.5,0,79.7,79.7,0,0,0,17.5,10A6.87,6.87,0,0,1,81.3,165Z"/></g></g></svg>