<svg width="24" height="24" viewBox="0 0 24 24" fill="none" xmlns="http://www.w3.org/2000/svg">
<path d="M22.4102 13.4284C21.7594 13.4284 21.2332 13.9557 21.2332 14.6052V20.6294C21.2332 21.1498 20.8107 21.5723 20.2916 21.5723H3.34159C2.82231 21.5723 2.4008 21.1498 2.4008 20.6294V3.68061C2.4008 3.16138 2.82231 2.73873 3.34159 2.73873H8.63795C9.28848 2.73873 9.8147 2.2115 9.8147 1.56221C9.8147 0.912645 9.28848 0.385254 8.63795 0.385254H3.34154C1.52466 0.385254 0.0462036 1.86383 0.0462036 3.68064V20.6295C0.0462036 22.4474 1.52469 23.9259 3.34161 23.9259H20.2915C22.1082 23.9259 23.588 22.4474 23.588 20.6295V14.6052C23.588 13.9558 23.0606 13.4284 22.4102 13.4284L22.4102 13.4284Z" fill="#5789DB"/>
<path d="M10.4907 17.2084C10.5263 17.2118 10.562 17.2131 10.5977 17.2131C11.2 17.2131 11.7135 16.7537 11.7688 16.1411C11.8343 15.4122 12.1533 13.2418 12.8292 11.9752C13.7573 10.2412 15.4833 7.01258 20.1038 6.40454C20.1832 6.39311 20.2501 6.35404 20.3237 6.32858L18.3456 10.4691C18.0646 11.0552 18.3134 11.7586 18.9006 12.0374C19.0583 12.1132 19.231 12.1525 19.406 12.1524C19.846 12.1524 20.2674 11.9061 20.4688 11.4834L23.513 5.11154C23.6479 4.82964 23.6651 4.50606 23.5603 4.21232C23.4568 3.91754 23.2392 3.67715 22.9581 3.54219L16.5862 0.500239C16.0013 0.221544 15.2977 0.470286 15.0168 1.05524C14.7359 1.64122 14.9846 2.34475 15.5718 2.62344L18.9212 4.22392C13.7515 5.27633 11.6675 9.15536 10.7544 10.8651C9.71472 12.8086 9.43604 15.8048 9.42442 15.9302C9.36582 16.5784 9.84355 17.1496 10.4907 17.2084Z" fill="#5789DB"/>
</svg>
