<svg xmlns="http://www.w3.org/2000/svg" viewBox="0 0 196.52 196.17"><defs><style>.cls-1{fill:#fff;}</style></defs><g id="图层_2" data-name="图层 2"><g id="图层_1-2" data-name="图层 1"><path class="cls-1" d="M186.37,108.69a9.81,9.81,0,0,0-9.81,9.81v50.2a7.86,7.86,0,0,1-7.85,7.86H27.46a7.85,7.85,0,0,1-7.84-7.86V27.46a7.85,7.85,0,0,1,7.84-7.85H71.6A9.81,9.81,0,0,0,71.6,0H27.46A27.49,27.49,0,0,0,0,27.46V168.7a27.5,27.5,0,0,0,27.46,27.47H168.71a27.5,27.5,0,0,0,27.47-27.47V118.5a9.81,9.81,0,0,0-9.81-9.81ZM87,140.19a8.7,8.7,0,0,0,.89,0,9.81,9.81,0,0,0,9.76-8.93c.54-6.07,3.2-24.16,8.83-34.72,7.74-14.45,22.12-41.35,60.63-46.42a9.65,9.65,0,0,0,1.83-.63L152.49,84a9.81,9.81,0,0,0,17.7,8.46l25.37-53.1a9.82,9.82,0,0,0-4.63-13.08L137.83,1a9.8,9.8,0,1,0-8.45,17.69L157.29,32c-43.08,8.77-60.45,41.1-68.06,55.34-8.66,16.2-11,41.17-11.08,42.21A9.8,9.8,0,0,0,87,140.19Z"/></g></g></svg>