<svg width="16" height="17" viewBox="0 0 16 17" fill="none" xmlns="http://www.w3.org/2000/svg">
<path d="M1 1V0.25C0.585786 0.25 0.25 0.585786 0.25 1L1 1ZM14.5849 1H15.3349C15.3349 0.585786 14.9992 0.25 14.5849 0.25V1ZM1 15.8428H0.25C0.25 16.257 0.585786 16.5928 1 16.5928L1 15.8428ZM14.5849 15.8428V16.5928C14.9992 16.5928 15.3349 16.257 15.3349 15.8428H14.5849ZM1 1.75H14.5849V0.25H1V1.75ZM1.75 15.8428V1H0.25V15.8428H1.75ZM13.8349 1V15.8428H15.3349V1H13.8349ZM14.5849 15.0928H1V16.5928H14.5849V15.0928Z" fill="#5789DB"/>
<path d="M4.01855 5.02518H11.5657" stroke="#5789DB" stroke-width="1.5" stroke-linecap="round" stroke-linejoin="round"/>
<path d="M4.01855 8.04404L11.5 8.04404" stroke="#5789DB" stroke-width="1.5" stroke-linecap="round" stroke-linejoin="round"/>
</svg>
