<svg xmlns="http://www.w3.org/2000/svg" viewBox="0 0 179.67 200"><defs><style>.cls-1{fill:#fff;}</style></defs><g id="图层_2" data-name="图层 2"><g id="图层_1-2" data-name="图层 1"><path class="cls-1" d="M89.83,0A235.36,235.36,0,0,1,0,38.5a632.44,632.44,0,0,0,9.17,98.17c7.5,27.5,43.16,53.83,80.66,63.33,37.5-9.33,73.17-35.67,80.67-63.17a632.2,632.2,0,0,0,9.17-98.16A235.37,235.37,0,0,1,89.83,0ZM154.5,132.17c-5.5,20-33.33,41.5-64.67,50-31.33-8.84-59.16-30.34-64.66-50a505.19,505.19,0,0,1-8-80.84A262.77,262.77,0,0,0,89.83,20.17,262.83,262.83,0,0,0,162.5,51.33,506.34,506.34,0,0,1,154.5,132.17Zm-56.83-70V93.33H129V110H97.67v31.33H81V110H49.83V93.33H81V62.17Z"/></g></g></svg>